<svg width="80" height="84" viewBox="0 0 80 84" fill="none" xmlns="http://www.w3.org/2000/svg">
<path id="Vector" d="M79.4311 15.4738L77.8867 15.1586C77.1942 15.0172 71.0183 13.8834 67.4909 17.5467C65.5135 19.5999 64.9877 22.5174 64.9315 24.8123L61.0848 27.4261V24.6753C61.0848 16.5968 54.7556 10.0242 46.9754 10.0242C44.005 10.0242 41.1745 10.9931 38.8337 12.7103L19.6117 0.0693359L18.9424 3.54426C18.444 6.13015 18.1753 8.82322 18.1387 11.5125L8.95148 5.39395L5.64704 3.19233L4.98933 6.71544C2.18932 21.7096 7.08949 37.3524 17.5359 47.4043L0 77.1117L18.019 83.1833L22.9118 68.4327H30.6145C42.2456 68.4327 51.7083 58.6072 51.7083 46.5299V34.3613H58.0436L63.6711 38.1787C63.7871 40.1634 64.4283 45.1108 67.8866 47.5324C70.8583 49.6142 75.2894 49.1843 78.5297 47.8171L79.9881 47.2014L79.9917 45.5673C79.9929 44.8343 79.8861 38.3233 75.7505 35.4266C72.8412 33.3893 69.0848 33.9409 66.8833 34.5433L63.0237 31.9257L65.8366 30.0145L67.039 30.2599C70.4925 30.9638 74.9157 30.4876 77.4348 27.8719C80.9627 24.2092 79.8708 17.7965 79.7346 17.0774L79.4311 15.4738ZM73.1294 39.4621C74.3233 40.2985 74.8955 42.2585 75.1422 43.8051C73.6925 44.1412 71.7108 44.3397 70.5077 43.4976C69.3132 42.6606 68.7404 40.6993 68.4943 39.1539C69.9441 38.8185 71.9264 38.6194 73.1294 39.4621ZM23.0211 8.07307L35.4401 16.2404C35.1421 16.6811 34.8636 17.1396 34.6102 17.6183L32.5955 21.1402L22.9027 14.6849C22.7653 12.4941 22.8037 10.2645 23.0211 8.07307ZM47.0365 29.4939V46.5293C47.0365 55.923 39.6606 63.5653 30.6145 63.5653H19.5689L15.0865 77.0781L7.10537 74.3882L21.1708 50.5616L24.4642 53.2971L27.3925 49.4963L22.6187 45.5312C12.9411 37.4919 7.83758 24.3488 9.08217 11.2633L34.5247 28.2073L34.5479 28.2225C38.5846 30.8427 40.0233 36.1527 37.8945 40.5737L42.0869 42.7506C43.6337 39.5382 43.9696 35.8654 43.0328 32.4083C42.0979 28.9556 39.9714 26.0069 37.0444 24.1034L36.543 23.7692C36.7641 23.383 35.743 25.1693 38.7043 19.9899C40.3562 16.8447 43.5256 14.8916 46.9754 14.8916C52.1712 14.8916 56.3978 19.2803 56.3978 24.6747V29.4933L47.0365 29.4939ZM74.1199 24.4299C73.1007 25.4882 71.1361 25.6975 69.6277 25.6531C69.585 24.0856 69.7865 22.0463 70.8057 20.988C71.8244 19.9309 73.7859 19.721 75.2961 19.7654C75.3364 21.3063 75.1459 23.3646 74.1199 24.4299Z" fill="#876815"/>
</svg>
