<svg width="95" height="84" viewBox="0 0 95 84" fill="none" xmlns="http://www.w3.org/2000/svg">
<g id="Group 15">
<path id="Vector" d="M16.1981 35.9221C20.1153 35.9221 23.673 33.9079 25.798 30.6341C26.8313 31.6581 28.2083 32.3108 29.7275 32.385C32.5746 38.6662 38.6003 42.6692 45.348 42.6692H49.5786C56.3256 42.6692 62.3541 38.664 65.2005 32.3805C66.6959 32.2853 68.0462 31.6236 69.0556 30.6004C71.1756 33.8966 74.7375 35.9221 78.68 35.9221C79.9335 35.9221 80.9531 34.8629 80.9531 33.5605V17.3463C80.9531 11.834 76.6373 7.35023 71.3316 7.35023H68.0007C67.436 5.97216 66.1197 5.00369 64.5896 5.00369H63.9203C63.2487 5.00369 62.5982 5.19798 62.0342 5.54531C58.8882 2.14177 54.4677 0.0195312 49.5786 0.0195312H45.348C40.4495 0.0195312 36.0217 2.14927 32.875 5.56331C32.3053 5.20473 31.6439 5.00369 30.9572 5.00369H30.2885C28.7585 5.00369 27.4421 5.97216 26.8775 7.35023H23.5466C18.2416 7.35023 13.925 11.8348 13.925 17.3463V33.5605C13.9243 34.8629 14.9446 35.9221 16.1981 35.9221ZM64.8272 29.4804C64.7348 29.4804 64.6301 29.4706 64.4972 29.4511C63.8582 29.3536 63.2393 29.7257 62.9982 30.3468C60.7764 36.0639 55.5089 39.7577 49.5778 39.7577H45.3472C39.4104 39.7577 34.1408 36.0586 31.9226 30.3333C31.706 29.7744 31.1868 29.4211 30.6236 29.4211C30.5413 29.4211 30.4575 29.4286 30.3745 29.4436C30.2445 29.4683 30.1275 29.4804 30.0178 29.4804C28.188 29.4804 26.7006 27.9342 26.7006 26.0341V24.4069C26.7006 23.2644 27.5952 22.3349 28.6949 22.3349H29.4762C30.2503 22.3349 30.8777 21.6838 30.8777 20.8789V20.7123C33.6115 17.1085 37.8291 14.9705 42.2503 14.9705H52.6748C57.0967 14.9705 61.3136 17.1085 64.0481 20.7123V20.8789C64.0481 21.683 64.6755 22.3349 65.4496 22.3349H65.7976C67.0584 22.3349 68.0837 23.4002 68.0837 24.7107V26.0963C68.0844 27.962 66.623 29.4804 64.8272 29.4804ZM78.1508 17.3463V32.9942C74.8942 32.7954 72.0464 30.7692 70.6904 27.6844C70.8174 27.1766 70.8868 26.6447 70.8868 26.0963V24.71C70.8868 23.5397 70.5149 22.4587 69.8925 21.5818C69.8925 21.5818 69.8766 18.8706 69.8441 18.5368C69.7676 17.7371 69.0794 17.152 68.3104 17.2338C67.5407 17.3133 66.9789 18.0267 67.0555 18.8271C67.0786 19.0642 67.0901 19.3065 67.0901 19.5458V19.6013C67.0107 19.5796 66.932 19.5548 66.8511 19.5375V17.9637C66.8511 17.0282 66.7811 16.1093 66.6482 15.212C67.6483 14.5114 68.296 13.3246 68.296 12.0171V10.2609H71.3316C75.0914 10.2609 78.1508 13.4394 78.1508 17.3463ZM63.9203 7.91511H64.5896C65.0878 7.91511 65.4929 8.33596 65.4929 8.85283V10.9901C65.0517 9.90757 64.5109 8.87908 63.8834 7.91736C63.8957 7.91661 63.908 7.91511 63.9203 7.91511ZM45.348 2.93096H49.5786C57.0628 2.93096 63.2379 8.86483 63.9744 16.4423C60.8623 13.6532 56.8454 12.0591 52.6755 12.0591H42.251C38.0804 12.0591 34.0635 13.6532 30.9514 16.4423C31.6879 8.86483 37.863 2.93096 45.348 2.93096ZM30.2878 7.91511H30.9572C30.9853 7.91511 31.0128 7.91811 31.0402 7.92036C30.3896 8.91734 29.8344 9.98634 29.3852 11.1116V8.85283C29.3852 8.33596 29.7903 7.91511 30.2878 7.91511ZM16.7274 17.3463C16.7274 13.4394 19.7861 10.2609 23.5466 10.2609H26.5829V12.0171C26.5829 13.3531 27.2472 14.5519 28.2732 15.2443C28.1433 16.1318 28.0754 17.0395 28.0754 17.9637V19.4648C27.9786 19.4775 27.8833 19.4948 27.7887 19.5135C27.7895 19.2847 27.8003 19.0559 27.822 18.8309C27.8992 18.0312 27.3374 17.3178 26.5677 17.2375C25.798 17.1572 25.1106 17.7409 25.0333 18.5406C25.0016 18.8721 24.985 21.2517 24.985 21.2517C24.3062 22.1114 23.8982 23.2104 23.8982 24.4069V26.0341C23.8982 26.6447 23.9827 27.2351 24.1387 27.7947C22.7617 30.8142 19.9363 32.7969 16.7274 32.9942V17.3463Z" fill="white"/>
<path id="Vector_2" d="M42.7976 23.1116C42.7976 24.3081 41.8647 25.2773 40.713 25.2773C39.5621 25.2773 38.6284 24.3081 38.6284 23.1116C38.6284 21.9158 39.5621 20.9458 40.713 20.9458C41.8647 20.9458 42.7976 21.9158 42.7976 23.1116Z" fill="white"/>
<path id="Vector_3" d="M56.2974 23.1116C56.2974 24.3081 55.3638 25.2773 54.2128 25.2773C53.0611 25.2773 52.1282 24.3081 52.1282 23.1116C52.1282 21.9158 53.0611 20.9458 54.2128 20.9458C55.3638 20.9458 56.2974 21.9158 56.2974 23.1116Z" fill="white"/>
<path id="Vector_4" d="M53.7543 26.8975H41.1723C40.5781 26.8975 40.0098 27.1608 39.6127 27.6214C39.2148 28.0812 39.0242 28.6979 39.0892 29.3123C39.5563 33.7555 43.1566 37.1051 47.463 37.1051C51.7701 37.1051 55.3703 33.7555 55.8375 29.3123C55.9018 28.6979 55.7111 28.0812 55.314 27.6206C54.9169 27.1608 54.3479 26.8975 53.7543 26.8975ZM47.463 34.1936C44.8585 34.1936 42.641 32.3587 42.0164 29.8089H52.9102C52.2857 32.3587 50.0682 34.1936 47.463 34.1936Z" fill="white"/>
<path id="Vector_5" d="M90.6065 60.0022V58.4283C90.6065 48.5335 82.8587 40.4834 73.3346 40.4834H69.104C59.58 40.4834 51.8315 48.5335 51.8315 58.4283V59.9287C49.4782 60.246 47.6543 62.3412 47.6543 64.8715V66.4979C47.6543 69.903 50.2436 72.6906 53.4843 72.8489C56.3307 79.1301 62.3563 83.133 69.104 83.133H73.3346C80.0816 83.133 86.1102 79.1278 88.9565 72.8444C92.125 72.6433 94.6428 69.9022 94.6428 66.5609V65.1746C94.6428 62.6345 92.9091 60.507 90.6065 60.0022ZM69.104 43.3948H73.3346C80.8188 43.3948 86.994 49.3294 87.7305 56.907C84.6184 54.1171 80.6015 52.5229 76.4316 52.5229H66.0071C61.8371 52.5229 57.8203 54.1171 54.7082 56.907C55.444 49.3294 61.6191 43.3948 69.104 43.3948ZM91.8405 66.5609C91.8405 68.4266 90.3797 69.9442 88.5832 69.9442C88.4908 69.9442 88.3861 69.9352 88.2532 69.9157C87.6142 69.8182 86.9961 70.1895 86.7542 70.8114C84.5324 76.5285 79.265 80.2216 73.3346 80.2216H69.104C63.1665 80.2216 57.8968 76.5225 55.6786 70.7979C55.462 70.239 54.9428 69.885 54.3796 69.885C54.2973 69.885 54.2136 69.8925 54.1305 69.9082C54.0005 69.933 53.8843 69.9442 53.7738 69.9442C51.9448 69.9442 50.4566 68.3989 50.4566 66.4979V64.8715C50.4566 63.729 51.3513 62.7996 52.451 62.7996H53.2323C54.0063 62.7996 54.6338 62.1477 54.6338 61.3435V61.1762C57.3683 57.5731 61.5851 55.4351 66.0071 55.4351H76.4308C80.8528 55.4351 85.0697 57.5731 87.8041 61.1762V61.3435C87.8041 62.1477 88.4316 62.7996 89.2057 62.7996H89.5537C90.8144 62.7996 91.8405 63.8648 91.8405 65.1746V66.5609Z" fill="white"/>
<path id="Vector_6" d="M66.5545 63.5759C66.5545 64.7724 65.6208 65.7417 64.4699 65.7417C63.3182 65.7417 62.3845 64.7724 62.3845 63.5759C62.3845 62.3801 63.3182 61.4102 64.4699 61.4102C65.6208 61.4102 66.5545 62.3801 66.5545 63.5759Z" fill="white"/>
<path id="Vector_7" d="M80.0535 63.5759C80.0535 64.7724 79.1206 65.7417 77.9689 65.7417C76.8172 65.7417 75.8843 64.7724 75.8843 63.5759C75.8843 62.3801 76.8172 61.4102 77.9689 61.4102C79.1206 61.4102 80.0535 62.3801 80.0535 63.5759Z" fill="white"/>
<path id="Vector_8" d="M77.5103 67.3613H64.9283C64.334 67.3613 63.7657 67.6254 63.3686 68.0852C62.9715 68.5459 62.7801 69.1625 62.8451 69.7769C63.3123 74.2194 66.9118 77.5697 71.2189 77.5697C75.526 77.5697 79.1263 74.2194 79.5935 69.7776C79.6584 69.1625 79.4678 68.5459 79.0707 68.086C78.6728 67.6254 78.1045 67.3613 77.5103 67.3613ZM71.2189 74.6583C68.6137 74.6583 66.3962 72.8226 65.7724 70.2735H76.6662C76.0416 72.8226 73.8241 74.6583 71.2189 74.6583Z" fill="white"/>
<path id="Vector_9" d="M42.9529 60.0014V58.4283C42.9529 48.5335 35.2044 40.4834 25.6803 40.4834H21.4497C11.9257 40.4834 4.17716 48.5335 4.17716 58.4283V59.9294C1.82394 60.246 0 62.342 0 64.8715V66.4979C0 69.903 2.58933 72.6913 5.82997 72.8489C8.67636 79.1308 14.702 83.1338 21.4497 83.1338H25.6803C32.428 83.1338 38.4559 79.1278 41.3022 72.8444C44.47 72.6433 46.9885 69.9015 46.9885 66.5609V65.1746C46.9885 62.6345 45.2548 60.507 42.9529 60.0014ZM44.1862 66.5609C44.1862 68.4266 42.7247 69.9442 40.9289 69.9442C40.8365 69.9442 40.7318 69.9352 40.5989 69.9157C39.9614 69.8182 39.3411 70.1895 39.0999 70.8114C36.8781 76.5285 31.6107 80.2216 25.6796 80.2216H21.449C15.5122 80.2216 10.2425 76.5225 8.02433 70.7979C7.80771 70.239 7.28855 69.885 6.72533 69.885C6.64302 69.885 6.55998 69.8925 6.47622 69.9082C6.34625 69.933 6.22927 69.9442 6.11952 69.9442C4.29052 69.9442 2.80234 68.3989 2.80234 66.4979V64.8715C2.80234 63.729 3.69698 62.7996 4.79669 62.7996H5.57797C6.35203 62.7996 6.9795 62.1477 6.9795 61.3435V61.1762C9.71397 57.5731 13.9308 55.4351 18.3528 55.4351H28.7773C29.7297 55.4351 30.6814 55.5311 31.6063 55.7217C32.3652 55.8785 33.1024 55.3653 33.2534 54.5769C33.4035 53.7885 32.9104 53.0218 32.1508 52.8658C31.0474 52.6385 29.9116 52.5229 28.7773 52.5229H18.3528C14.1828 52.5229 10.166 54.1171 7.05315 56.9069C7.78966 49.3294 13.9648 43.3948 21.4497 43.3948H25.6803C33.1624 43.3948 39.3361 49.3257 40.0755 56.8994C39.4299 56.3188 38.744 55.7854 38.0168 55.3053C37.3634 54.8747 36.4976 55.0758 36.0824 55.7547C35.668 56.4336 35.8615 57.333 36.5149 57.7636C37.9107 58.6841 39.1295 59.8341 40.1498 61.1814V61.3435C40.1498 62.1477 40.7773 62.7988 41.5514 62.7988H41.8994C43.1601 62.7988 44.1862 63.8648 44.1862 65.1746V66.5609Z" fill="white"/>
<path id="Vector_10" d="M18.9002 63.5759C18.9002 64.7724 17.9665 65.7417 16.8156 65.7417C15.6639 65.7417 14.7302 64.7724 14.7302 63.5759C14.7302 62.3801 15.6639 61.4102 16.8156 61.4102C17.9665 61.4102 18.9002 62.3801 18.9002 63.5759Z" fill="white"/>
<path id="Vector_11" d="M32.3992 63.5759C32.3992 64.7724 31.4663 65.7417 30.3146 65.7417C29.1636 65.7417 28.23 64.7724 28.23 63.5759C28.23 62.3801 29.1636 61.4102 30.3146 61.4102C31.4663 61.4102 32.3992 62.3801 32.3992 63.5759Z" fill="white"/>
<path id="Vector_12" d="M29.856 67.3613H17.274C16.6797 67.3613 16.1115 67.6254 15.7143 68.0852C15.3165 68.5459 15.1259 69.1625 15.1908 69.7769C15.658 74.2194 19.2582 77.5697 23.5647 77.5697C27.8718 77.5697 31.472 74.2194 31.9392 69.7769C32.0035 69.1625 31.8128 68.5459 31.4157 68.0852C31.0185 67.6254 30.4503 67.3613 29.856 67.3613ZM23.5647 74.6583C20.9602 74.6583 18.7427 72.8226 18.1181 70.2735H29.0119C28.3873 72.8233 26.1699 74.6583 23.5647 74.6583Z" fill="white"/>
</g>
</svg>
