<svg width="398" height="81" viewBox="0 0 398 81" fill="none" xmlns="http://www.w3.org/2000/svg">
<path d="M7.28 26.2C7.38667 24.9733 7.57333 23.6667 7.84 22.28C8.10667 20.84 8.53333 19.1867 9.12 17.32C8.42667 18.0667 7.70667 18.6 6.96 18.92C6.21333 19.24 5.44 19.1067 4.64 18.52C2.88 17.24 1.6 15.5333 0.8 13.4C0.533333 12.6533 0.64 12.0933 1.12 11.72C1.65333 11.3467 2.16 11.16 2.64 11.16C2.90667 11.16 3.14667 11.1067 3.36 11C3.57333 10.8933 3.81333 10.84 4.08 10.84C4.24 10.7867 4.42667 10.76 4.64 10.76C4.85333 10.76 5.01333 10.7067 5.12 10.6C6.50667 10.12 7.76 9.69333 8.88 9.32C10 8.89333 11.12 8.52 12.24 8.2C13.4133 7.82666 14.6667 7.42666 16 7C17.3333 6.57333 18.9333 6.06667 20.8 5.48L23.44 4.6C24.1867 4.44 24.6667 4.41333 24.88 4.52C25.0933 4.57333 25.2533 4.81333 25.36 5.24C25.36 5.29333 25.3067 5.58666 25.2 6.12C25.1467 6.33333 25.12 6.57333 25.12 6.84C24.4267 7.74666 23.6267 8.41333 22.72 8.84C22.08 9.10667 21.3867 9.45333 20.64 9.88C19.8933 10.2533 19.2267 10.6533 18.64 11.08C18.2133 11.3467 17.8133 11.5867 17.44 11.8C17.12 12.0133 16.7733 12.2267 16.4 12.44C16.1333 12.6 15.84 12.7867 15.52 13C15.2 13.16 14.9067 13.32 14.64 13.48C14.8533 13.5333 15.2267 13.6667 15.76 13.88C16.0267 13.9867 16.24 14.1467 16.4 14.36C16.6133 14.5733 16.6667 14.8933 16.56 15.32C16.1867 16.6 15.84 17.72 15.52 18.68C15.2533 19.5867 14.9867 20.7067 14.72 22.04C14.6133 22.4667 14.4533 23.0533 14.24 23.8C14.0267 24.4933 13.92 25.0533 13.92 25.48C14.1867 25.32 14.56 25.1067 15.04 24.84C15.52 24.52 16 24.2 16.48 23.88C16.96 23.56 17.4133 23.2667 17.84 23C18.2667 22.7333 18.5867 22.5467 18.8 22.44L20.72 21.32C21.4667 20.8933 22.1067 20.5467 22.64 20.28C23.1733 19.96 23.8133 19.5867 24.56 19.16C24.9867 18.9467 25.4133 18.68 25.84 18.36C26.3733 18.04 26.8267 17.8533 27.2 17.8C27.5733 17.7467 27.7867 17.9067 27.84 18.28C28.0533 18.6533 28 19.1067 27.68 19.64C27.2 20.4933 26.7467 21.16 26.32 21.64C25.9467 22.0667 25.3333 22.7067 24.48 23.56C24.2133 23.8267 23.9467 24.0667 23.68 24.28C23.4133 24.44 23.1467 24.6267 22.88 24.84C22.2933 25.32 21.6267 25.88 20.88 26.52C20.1333 27.1067 19.4667 27.6133 18.88 28.04C18.2933 28.4133 17.8133 28.7333 17.44 29C17.12 29.2133 16.6667 29.48 16.08 29.8C15.8133 29.96 15.52 30.1467 15.2 30.36C14.88 30.52 14.5867 30.68 14.32 30.84C13.7867 31.1067 13.2 31.4 12.56 31.72C11.92 31.9867 11.2533 32.1733 10.56 32.28C10.1333 32.3867 9.73333 32.3867 9.36 32.28C8.98667 32.1733 8.72 31.8533 8.56 31.32C8.45333 31.1067 8.37333 30.92 8.32 30.76C8.26667 30.6 8.21333 30.44 8.16 30.28C8.05333 30.0667 7.92 29.8 7.76 29.48C7.65333 29.1067 7.54667 28.84 7.44 28.68C7.33333 28.52 7.28 28.3067 7.28 28.04C7.33333 27.7733 7.36 27.5067 7.36 27.24C7.36 27.08 7.33333 26.92 7.28 26.76C7.28 26.5467 7.28 26.36 7.28 26.2ZM28.56 38.04C29.2 37.8267 29.84 37.64 30.48 37.48C31.0667 37.32 31.52 37.2133 31.84 37.16C32.16 37.0533 32.4533 36.9733 32.72 36.92C34.32 36.4933 36.0267 36.28 37.84 36.28C39.28 36.28 40 36.4933 40 36.92C40 37.1867 39.8667 37.4267 39.6 37.64C39.3333 37.8533 38.9867 38.0133 38.56 38.12C38.2933 38.2267 38.0267 38.3333 37.76 38.44C37.5467 38.5467 37.3867 38.6 37.28 38.6C36.6933 38.8667 36.0533 39.1867 35.36 39.56C34.6667 39.88 33.9467 40.2533 33.2 40.68C32.56 41 31.7867 41.3733 30.88 41.8C30.0267 42.2267 29.2533 42.6267 28.56 43C28.2933 43.16 27.9467 43.32 27.52 43.48C27.1467 43.64 26.8 43.8267 26.48 44.04L23.36 45.96C23.0933 46.1733 22.7467 46.28 22.32 46.28C22.2133 46.3333 22.08 46.4133 21.92 46.52C21.76 46.5733 21.6267 46.6533 21.52 46.76C20.88 47.08 20.3467 47.4 19.92 47.72C19.4933 47.9867 19.0933 48.2533 18.72 48.52C18.4533 48.7333 18.1333 48.92 17.76 49.08C17.3867 49.24 16.9867 49.4267 16.56 49.64C16.2933 49.7467 15.9733 49.9067 15.6 50.12C15.2267 50.28 14.8533 50.44 14.48 50.6C14.2133 50.7067 13.9733 50.8667 13.76 51.08C13.6533 51.1333 13.44 51.2667 13.12 51.48C12.8 51.64 12.2933 51.8533 11.6 52.12C10.9067 52.4933 10.2667 52.8133 9.68 53.08C9.09333 53.3467 8.53333 53.6667 8 54.04C7.78667 54.1467 7.65333 54.36 7.6 54.68C7.54667 55.2667 7.28 55.72 6.8 56.04C6.32 56.3067 5.78667 56.3067 5.2 56.04C4.93333 56.04 4.69333 55.96 4.48 55.8C3.89333 55.5867 3.44 55.32 3.12 55C2.85333 54.68 2.53333 54.3067 2.16 53.88C2 53.6133 1.68 53.3467 1.2 53.08C0.72 52.76 0.426667 52.2 0.32 51.4C0.16 50.8667 0.266667 50.4133 0.64 50.04C1.01333 49.6667 1.36 49.4 1.68 49.24C2.48 48.9733 3.33333 48.6 4.24 48.12C5.14667 47.64 6.08 47.1067 7.04 46.52C7.57333 46.2533 8 46.0933 8.32 46.04C8.69333 45.9333 9.17333 45.8533 9.76 45.8L10.16 45.4C10.32 45.2933 10.5067 45.1867 10.72 45.08C10.9333 44.9733 11.0933 44.8933 11.2 44.84C11.7333 44.52 12.32 44.2 12.96 43.88C13.6 43.56 14.24 43.32 14.88 43.16C14.9333 43.16 14.9867 43.16 15.04 43.16C15.0933 43.1067 15.1467 43.08 15.2 43.08L15.52 42.04V41.56C15.2533 40.6533 15.12 39.8 15.12 39C15.1733 38.2 15.2267 37.5867 15.28 37.16C15.3333 36.2533 15.5467 35.2133 15.92 34.04C16.0267 33.7733 16.1333 33.5067 16.24 33.24C16.3467 32.92 16.5067 32.52 16.72 32.04C16.8267 31.8267 16.9067 31.6133 16.96 31.4C17.0133 31.1333 17.0933 30.8933 17.2 30.68C17.4667 30.2 17.76 29.88 18.08 29.72C18.4 29.56 18.9067 29.6133 19.6 29.88C20.1867 30.0933 20.72 30.36 21.2 30.68C21.68 31 22.2133 31.3733 22.8 31.8C23.28 32.2267 23.4667 32.7333 23.36 33.32C23.3067 33.9067 23.04 34.4133 22.56 34.84C22.1333 35.16 21.84 35.56 21.68 36.04C21.5733 36.52 21.4133 37 21.2 37.48L19.92 40.84V40.92C21.3067 40.3867 22.7467 39.88 24.24 39.4C25.7333 38.92 27.1733 38.4667 28.56 38.04ZM27.52 54.12C27.52 54.28 27.6533 54.36 27.92 54.36C28.9867 55.0533 29.6267 55.96 29.84 57.08C30.0533 57.6667 30.1333 58.2267 30.08 58.76C30.08 59.24 29.9733 59.8 29.76 60.44C29.1733 61.72 28.56 63.0267 27.92 64.36C27.28 65.6933 26.5333 66.9467 25.68 68.12C25.2533 68.6 24.7733 69.1067 24.24 69.64C23.76 70.2267 23.3333 70.76 22.96 71.24C22.3733 72.04 21.7067 72.6533 20.96 73.08C20.2133 73.5067 19.3867 73.96 18.48 74.44C18.2667 74.5467 18.0267 74.6 17.76 74.6C17.5467 74.6533 17.3067 74.68 17.04 74.68C16.4533 74.68 16 74.4133 15.68 73.88C15.52 73.6667 15.3333 73.4533 15.12 73.24C14.96 73.0267 14.7467 72.76 14.48 72.44C14.2133 72.1733 14.0533 71.9067 14 71.64C14 71.3733 14 71.0267 14 70.6C14 69.2133 14.1867 67.8533 14.56 66.52C15.1467 64.9733 15.7333 63.5067 16.32 62.12C16.96 60.7333 17.68 59.2933 18.48 57.8C18.96 56.84 19.44 55.96 19.92 55.16C20.4 54.3067 20.9333 53.4267 21.52 52.52C21.7333 52.04 21.9733 51.6667 22.24 51.4C22.5067 51.08 22.8533 50.7867 23.28 50.52C23.6533 49.9867 24.1333 49.88 24.72 50.2C25.0933 50.4667 25.4667 50.7067 25.84 50.92C26.2133 51.08 26.6133 51.2667 27.04 51.48C27.4667 51.7467 27.7333 52.0133 27.84 52.28C27.9467 52.4933 27.9733 52.8667 27.92 53.4C27.6533 53.7733 27.52 54.0133 27.52 54.12ZM20.08 68.36C20.08 68.4133 20.1067 68.4667 20.16 68.52L20.32 68.6C20.7467 68.3333 21.1733 67.96 21.6 67.48C22.0267 67.0533 22.4267 66.5733 22.8 66.04C23.1733 65.5067 23.52 64.9733 23.84 64.44C24.16 63.96 24.4267 63.5067 24.64 63.08C24.96 62.6 25.0667 62.04 24.96 61.4C24.96 61.3467 24.9067 61.16 24.8 60.84C24.6933 60.6267 24.5867 60.4933 24.48 60.44C24.3733 60.3867 24.2133 60.3067 24 60.2H23.6C23.3867 60.52 23.2 60.76 23.04 60.92C22.72 61.6133 22.2933 62.4933 21.76 63.56C21.28 64.68 20.9067 65.5867 20.64 66.28C20.5333 66.5467 20.4267 66.7867 20.32 67C20.2667 67.2667 20.1867 67.5333 20.08 67.8V68.36ZM86.32 46.04C86.32 46.2 86.4533 46.28 86.72 46.28C87.7867 46.9733 88.4267 47.88 88.64 49C88.8533 49.5867 88.9333 50.1467 88.88 50.68C88.88 51.16 88.7733 51.72 88.56 52.36C87.9733 53.64 87.36 54.9467 86.72 56.28C86.08 57.6133 85.3333 58.8667 84.48 60.04C84.0533 60.52 83.5733 61.0267 83.04 61.56C82.56 62.1467 82.1333 62.68 81.76 63.16C81.1733 63.96 80.5067 64.5733 79.76 65C79.0133 65.4267 78.1867 65.88 77.28 66.36C77.0667 66.4667 76.8267 66.52 76.56 66.52C76.3467 66.5733 76.1067 66.6 75.84 66.6C75.2533 66.6 74.8 66.3333 74.48 65.8C74.32 65.5867 74.1333 65.3733 73.92 65.16C73.76 64.9467 73.5467 64.68 73.28 64.36C73.0133 64.0933 72.8533 63.8267 72.8 63.56C72.8 63.2933 72.8 62.9467 72.8 62.52C72.8 61.1333 72.9867 59.7733 73.36 58.44C73.9467 56.8933 74.5333 55.4267 75.12 54.04C75.76 52.6533 76.48 51.2133 77.28 49.72C77.7067 48.92 78.1333 48.1733 78.56 47.48C78.9867 46.7333 79.4133 45.9867 79.84 45.24C79.7333 44.9733 79.6533 44.7067 79.6 44.44C79.5467 44.12 79.52 43.7733 79.52 43.4C79.2533 42.28 79.1733 41 79.28 39.56C79.3333 38.6533 79.3867 37.7467 79.44 36.84C79.4933 35.88 79.5733 34.9467 79.68 34.04L80.08 32.04C80.1333 31.7733 80.24 31.3467 80.4 30.76C80.56 30.1733 80.6667 29.7467 80.72 29.48L79.68 30.36L78.64 31.16L76.88 32.36C76.4533 32.6267 76.0533 32.92 75.68 33.24C75.3067 33.5067 74.9867 33.72 74.72 33.88L73.84 34.6C73.6267 34.8133 73.4667 34.9467 73.36 35C73.3067 35 73.0667 35 72.64 35C71.9467 35 71.3067 34.9467 70.72 34.84C70.1867 34.7333 69.68 34.36 69.2 33.72C68.9333 33.4533 68.72 33.1867 68.56 32.92C68.4 32.6 68.24 32.28 68.08 31.96C67.9733 31.6933 68.0533 31.2133 68.32 30.52C68.5867 29.8267 68.9333 29.3467 69.36 29.08C69.6267 28.9733 69.8133 28.8933 69.92 28.84C70.08 28.7333 70.2667 28.6267 70.48 28.52C72.1867 27.6667 73.92 26.8933 75.68 26.2C77.44 25.4533 79.2533 24.5467 81.12 23.48C81.2267 23.0533 81.3867 22.3867 81.6 21.48C81.8667 20.52 82.1333 19.48 82.4 18.36V18.28C82.24 18.3867 82.1067 18.4667 82 18.52C81.8933 18.52 81.7867 18.5467 81.68 18.6C81.5733 18.7067 81.4933 18.76 81.44 18.76C81.44 18.76 81.3867 18.8133 81.28 18.92C80.96 19.1867 80.6933 19.4267 80.48 19.64C80.32 19.8533 80.0267 20.0667 79.6 20.28L78 21.16C77.4133 21.48 76.8533 21.8267 76.32 22.2C75.7867 22.52 75.28 22.8133 74.8 23.08C73.36 23.9867 72.3467 24.3067 71.76 24.04C71.2267 23.72 70.8267 23.0533 70.56 22.04C70.5067 21.7733 70.4533 21.56 70.4 21.4C70.4 21.1867 70.3733 20.9467 70.32 20.68L70.08 19.32C69.8667 18.3067 70.1067 17.6933 70.8 17.48C70.9067 17.4267 71.0667 17.3733 71.28 17.32C71.5467 17.2133 71.7867 17.1067 72 17C72.4267 16.8933 72.96 16.7333 73.6 16.52C74.2933 16.2533 74.9067 16.04 75.44 15.88C76.9333 15.4533 78.16 15.16 79.12 15C80.08 14.84 81.2267 14.8133 82.56 14.92C82.6667 14.92 82.88 14.9733 83.2 15.08C83.2533 14.92 83.3067 14.76 83.36 14.6C83.4133 14.3867 83.4933 14.1467 83.6 13.88C83.7067 13.4 83.8133 13.0533 83.92 12.84C84.0267 12.6267 84.1333 12.4133 84.24 12.2L84.48 11.72L85.12 10.12C85.5467 8.89333 86 7.96 86.48 7.32C87.0133 6.62667 87.92 6.22666 89.2 6.12C89.3067 6.22666 89.4933 6.33333 89.76 6.44C90.0267 6.54667 90.2133 6.65333 90.32 6.76C90.7467 7.02666 91.2267 7.32 91.76 7.64C92.2933 7.96 92.7467 8.30666 93.12 8.68C93.5467 9.10666 93.76 9.37333 93.76 9.48C93.76 9.58666 93.76 9.77333 93.76 10.04L93.36 10.84C93.36 11.1067 93.3067 11.3467 93.2 11.56C93.0933 11.72 92.9867 11.8533 92.88 11.96C91.6533 14.04 90.7733 15.9867 90.24 17.8C89.7067 19.6133 89.1467 21.6667 88.56 23.96C88.4533 24.2267 88.3733 24.4933 88.32 24.76C88.32 24.9733 88.2667 25.2133 88.16 25.48C88.1067 25.8533 88.0267 26.2533 87.92 26.68C87.8133 27.1067 87.6267 27.72 87.36 28.52C87.2533 29.16 87.12 29.8533 86.96 30.6C86.8 31.2933 86.6667 31.9333 86.56 32.52C86.4533 32.84 86.3733 33.16 86.32 33.48C86.2667 33.7467 86.2133 34.0133 86.16 34.28C86 35.08 85.8667 35.7733 85.76 36.36C85.7067 36.8933 85.6267 37.5333 85.52 38.28C85.52 39.08 85.4933 39.6133 85.44 39.88C85.0667 40.84 84.8 41.8267 84.64 42.84C84.8533 42.9467 85.04 43.0533 85.2 43.16C85.4133 43.2133 85.6267 43.2933 85.84 43.4C86.2667 43.6667 86.5333 43.9333 86.64 44.2C86.7467 44.4133 86.7733 44.7867 86.72 45.32C86.4533 45.6933 86.32 45.9333 86.32 46.04ZM66.72 34.12C66.88 34.7067 66.8533 35.16 66.64 35.48C66.4267 35.8 66.1333 36.0933 65.76 36.36C65.6533 36.4667 65.4667 36.6 65.2 36.76C64.9867 36.92 64.7467 37.08 64.48 37.24C63.5733 37.7733 62.7733 38.3067 62.08 38.84C61.3867 39.32 60.6933 39.8533 60 40.44C59.7867 40.6533 59.5467 40.8933 59.28 41.16C59.0667 41.3733 58.8 41.6933 58.48 42.12C57.84 42.8667 57.4667 43.32 57.36 43.48C57.1467 43.7467 56.88 43.96 56.56 44.12C56.2933 44.28 56.0533 44.36 55.84 44.36C55.04 44.36 54.2933 44.1733 53.6 43.8C52.9067 43.4267 52.2667 43 51.68 42.52C51.04 41.7733 50.8 41.1067 50.96 40.52C51.1733 39.9333 51.5467 39.4267 52.08 39L53.6 37.72C53.8667 37.5067 54.1867 37.2933 54.56 37.08C54.9333 36.8667 55.28 36.6533 55.6 36.44C55.9733 36.1733 56.3467 35.96 56.72 35.8V35.72C57.3067 34.1733 57.8933 32.6 58.48 31C59.0667 29.3467 59.5467 27.9067 59.92 26.68L60.56 24.84C60.6133 24.7333 60.6667 24.6 60.72 24.44C60.7733 24.2267 60.8 24.0667 60.8 23.96C60.8 23.8 60.72 23.72 60.56 23.72C60.4533 23.6667 60.24 23.72 59.92 23.88C59.6 24.0933 59.28 24.2267 58.96 24.28C58.6933 24.28 58.32 24.28 57.84 24.28C57.5733 24.2267 57.3067 24.28 57.04 24.44C56.8267 24.6 56.6667 24.76 56.56 24.92C55.9733 25.6667 55.5467 26.2267 55.28 26.6C55.0133 26.9733 54.6933 27.5867 54.32 28.44C54.2133 28.6533 54.08 28.92 53.92 29.24C53.76 29.5067 53.6267 29.7733 53.52 30.04C53.1467 30.7867 52.8533 31.32 52.64 31.64C52.48 31.9067 52.3467 32.12 52.24 32.28L51.52 33.64C51.4133 33.96 51.3067 34.2267 51.2 34.44C51.1467 34.6533 51.0933 34.8133 51.04 34.92C50.9333 35.08 50.8533 35.24 50.8 35.4C50.7467 35.5067 50.6933 35.6133 50.64 35.72C50.5867 35.88 50.5333 35.9867 50.48 36.04C50.1067 37.2133 49.8133 38.3067 49.6 39.32C49.44 40.3333 49.36 41.3467 49.36 42.36V43.24C49.36 43.5067 49.2533 43.8 49.04 44.12C48.8267 44.44 48.4267 44.6 47.84 44.6C47.6267 44.6 47.36 44.5467 47.04 44.44C46.8267 44.3867 46.6667 44.3333 46.56 44.28C46.0267 43.9067 45.5733 43.4267 45.2 42.84C44.88 42.2533 44.6133 41.6133 44.4 40.92V41C44.2933 40.7333 44.2133 40.4933 44.16 40.28C44.1067 40.0133 44.0533 39.7467 44 39.48C43.9467 39.2133 43.8933 38.9733 43.84 38.76C43.7867 38.5467 43.76 38.3333 43.76 38.12C43.7067 37.96 43.68 37.7733 43.68 37.56C43.68 37.3467 43.68 37.1067 43.68 36.84V36.36C43.7867 35.1333 44 33.9333 44.32 32.76C44.6933 31.5867 45.0933 30.3867 45.52 29.16C45.9467 27.9333 46.4 26.7067 46.88 25.48C47.36 24.2 47.8933 22.9467 48.48 21.72C49.0133 20.7067 49.4667 19.9333 49.84 19.4C50.2667 18.8133 50.8 18.0933 51.44 17.24C51.8133 16.8667 52.2667 16.6267 52.8 16.52C53.3333 16.36 53.8667 16.3333 54.4 16.44C54.9333 16.4933 55.44 16.6533 55.92 16.92C56.4533 17.1333 56.88 17.4 57.2 17.72C57.4667 17.9867 57.6267 18.2533 57.68 18.52C57.7867 18.7333 57.8933 18.9733 58 19.24C58.1067 19.56 58.32 19.72 58.64 19.72C58.96 19.72 59.28 19.64 59.6 19.48C59.8667 19.3733 60.16 19.24 60.48 19.08C60.8533 18.92 61.1467 18.7867 61.36 18.68C62 18.36 62.6133 18.2 63.2 18.2C63.7867 18.2 64.4533 18.2533 65.2 18.36C65.4667 18.36 65.7333 18.4933 66 18.76C66.32 19.0267 66.56 19.2667 66.72 19.48C66.9867 19.6933 67.1467 20.04 67.2 20.52C67.2533 21 67.2533 21.5333 67.2 22.12C67.04 23.88 66.5867 25.6133 65.84 27.32C65.4133 28.2267 64.96 29.2133 64.48 30.28C64.0533 31.3467 63.5467 32.3867 62.96 33.4C63.1733 33.3467 63.36 33.32 63.52 33.32C63.7333 33.2667 63.9733 33.2133 64.24 33.16C65.6267 32.8933 66.4533 33.2133 66.72 34.12ZM78.88 60.28C78.88 60.3333 78.9067 60.3867 78.96 60.44L79.12 60.52C79.5467 60.2533 79.9733 59.9067 80.4 59.48C80.8267 59 81.2267 58.4933 81.6 57.96C81.9733 57.4267 82.32 56.92 82.64 56.44C82.96 55.9067 83.2267 55.4267 83.44 55C83.76 54.52 83.8667 53.96 83.76 53.32C83.76 53.2667 83.7067 53.08 83.6 52.76C83.4933 52.5467 83.3867 52.4133 83.28 52.36C83.1733 52.3067 83.0133 52.2267 82.8 52.12H82.4C82.1867 52.44 82 52.68 81.84 52.84C81.52 53.5333 81.0933 54.44 80.56 55.56C80.08 56.6267 79.7067 57.5067 79.44 58.2C79.3333 58.4667 79.2267 58.7333 79.12 59C79.0667 59.2133 78.9867 59.4533 78.88 59.72V60.28ZM129.495 57.24C129.015 57.2933 128.535 57.16 128.055 56.84C127.628 56.4667 127.388 56.0667 127.335 55.64C127.282 55.48 127.228 55.32 127.175 55.16C127.122 54.9467 127.095 54.7867 127.095 54.68C126.828 54.04 126.615 53.4 126.455 52.76C126.348 52.12 126.322 51.48 126.375 50.84C126.375 50.8933 126.242 50.6 125.975 49.96C125.762 49.32 125.655 48.68 125.655 48.04V47.72C125.762 46.0133 125.842 44.3333 125.895 42.68C125.948 40.9733 126.242 39.1067 126.775 37.08C126.988 36.0133 127.228 34.9467 127.495 33.88C127.762 32.8133 128.028 31.7467 128.295 30.68C128.508 29.9867 128.695 29.32 128.855 28.68C129.015 27.9867 129.175 27.2933 129.335 26.6C129.495 26.0133 129.682 25.4533 129.895 24.92C130.108 24.3333 130.375 23.8267 130.695 23.4C131.122 22.76 131.468 22.12 131.735 21.48C132.055 20.84 132.242 20.0667 132.295 19.16C132.402 18.7867 132.535 18.44 132.695 18.12C132.855 17.8 133.015 17.5067 133.175 17.24C133.282 17.0267 133.388 16.8667 133.495 16.76C133.868 16.2267 134.348 15.8533 134.935 15.64C135.522 15.3733 136.108 15.3467 136.695 15.56C137.602 15.88 138.268 16.1733 138.695 16.44L139.495 17.24C139.602 17.3467 139.735 17.48 139.895 17.64C140.055 17.7467 140.188 17.8533 140.295 17.96C140.562 18.2267 140.695 18.4133 140.695 18.52C140.695 18.5733 140.748 18.68 140.855 18.84C140.855 18.8933 140.855 19 140.855 19.16C140.908 19.32 140.935 19.4533 140.935 19.56C140.935 20.04 140.882 20.5467 140.775 21.08C140.722 21.56 140.455 21.96 139.975 22.28C139.815 22.44 139.628 22.7333 139.415 23.16C139.255 23.5867 139.068 24.0933 138.855 24.68C138.748 24.8933 138.615 25.1867 138.455 25.56C138.348 25.9333 138.322 26.0933 138.375 26.04C138.215 26.3067 138.082 26.5467 137.975 26.76C137.922 26.9733 137.868 27.1333 137.815 27.24C137.655 27.7733 137.442 28.2267 137.175 28.6C136.855 29.08 136.722 29.5067 136.775 29.88C136.775 30.0933 136.722 30.36 136.615 30.68C136.562 31 136.402 31.2667 136.135 31.48C135.868 32.2267 135.602 33.1067 135.335 34.12C135.068 35.08 134.855 35.9867 134.695 36.84C134.428 37.5867 134.082 38.3333 133.655 39.08C133.762 39.3467 133.815 39.64 133.815 39.96C133.815 40.2267 133.788 40.4933 133.735 40.76C133.628 41.0267 133.495 41.2667 133.335 41.48C133.175 41.6933 133.042 41.9333 132.935 42.2C132.828 42.4667 132.695 42.7333 132.535 43C132.428 43.2133 132.322 43.4 132.215 43.56C132.108 43.72 132.028 43.88 131.975 44.04C131.975 44.1467 131.922 44.28 131.815 44.44V44.36C131.602 45 131.335 45.56 131.015 46.04C130.908 46.3067 130.802 46.7333 130.695 47.32C130.642 47.9067 130.562 48.52 130.455 49.16C130.402 49.3733 130.375 49.5333 130.375 49.64C130.375 49.7467 130.348 49.9067 130.295 50.12C130.295 50.44 130.268 50.7067 130.215 50.92C130.162 51.1333 130.082 51.3467 129.975 51.56C129.708 51.9867 129.575 52.3867 129.575 52.76C129.575 53.08 129.602 53.4267 129.655 53.8C129.655 54.0667 129.655 54.2533 129.655 54.36C129.708 54.4667 129.735 54.5733 129.735 54.68C129.842 55.0533 129.868 55.4533 129.815 55.88C129.815 56.2533 129.708 56.7067 129.495 57.24ZM158.535 27.48C158.642 27.9067 158.508 28.3067 158.135 28.68C157.868 28.9467 157.655 29.1333 157.495 29.24C157.068 29.5067 156.615 29.8533 156.135 30.28C155.708 30.6533 155.362 30.9733 155.095 31.24C154.828 31.4 154.375 31.64 153.735 31.96C153.148 32.28 152.508 32.6 151.815 32.92C151.175 33.24 150.535 33.5333 149.895 33.8C149.308 34.0667 148.935 34.2533 148.775 34.36C148.455 34.52 148.082 34.76 147.655 35.08C147.282 35.3467 146.908 35.6133 146.535 35.88C146.428 35.9333 146.348 35.96 146.295 35.96C146.242 35.96 146.162 36.0133 146.055 36.12C145.468 36.4933 145.148 36.68 145.095 36.68L143.255 37.64C142.988 37.8533 142.642 38.0933 142.215 38.36C141.788 38.6267 141.468 38.8133 141.255 38.92C141.148 38.9733 141.042 39.0533 140.935 39.16C140.828 39.2133 140.722 39.24 140.615 39.24C139.228 39.8267 137.975 39.4 136.855 37.96C136.642 37.7467 136.482 37.3467 136.375 36.76C136.268 36.28 136.322 35.8 136.535 35.32C136.535 35.16 136.535 35.0267 136.535 34.92C136.588 34.76 136.775 34.6267 137.095 34.52C137.842 33.9333 138.695 33.3733 139.655 32.84C140.615 32.2533 141.602 31.72 142.615 31.24C143.682 30.7067 144.695 30.2267 145.655 29.8C146.668 29.32 147.575 28.92 148.375 28.6C149.708 28.0667 151.148 27.6933 152.695 27.48C154.295 27.2133 155.762 27 157.095 26.84C157.628 26.84 157.975 26.8933 158.135 27C158.348 27.1067 158.482 27.2667 158.535 27.48ZM116.135 27.16C116.135 27.2667 116.268 27.32 116.535 27.32C117.602 27.64 118.455 28.12 119.095 28.76C119.788 29.4 120.242 29.9867 120.455 30.52C121.095 31.5867 121.095 32.7333 120.455 33.96C119.655 35.1333 118.775 36.28 117.815 37.4C116.908 38.52 115.842 39.5867 114.615 40.6C113.868 41.08 113.095 41.5867 112.295 42.12C111.548 42.6533 110.882 43.1333 110.295 43.56C109.442 44.3067 108.482 44.8933 107.415 45.32C106.402 45.6933 105.202 46.0933 103.815 46.52C103.548 46.68 103.175 46.76 102.695 46.76C102.215 46.76 101.788 46.76 101.415 46.76C100.615 46.76 99.9217 46.52 99.335 46.04C99.0683 45.8267 98.775 45.6133 98.455 45.4C98.1883 45.1867 97.8683 44.9467 97.495 44.68C97.175 44.4133 96.9883 44.1733 96.935 43.96C96.8817 43.6933 96.855 43.4 96.855 43.08C96.855 42.44 96.8817 41.88 96.935 41.4C96.9883 40.92 97.2017 40.3067 97.575 39.56C98.375 38.1733 99.2283 36.76 100.135 35.32C101.042 33.8267 102.082 32.3867 103.255 31C104.002 30.1467 104.775 29.4 105.575 28.76C106.375 28.0667 107.228 27.2933 108.135 26.44C108.402 26.0133 108.748 25.6933 109.175 25.48C109.602 25.2133 110.108 24.9467 110.695 24.68C110.962 24.4667 111.308 24.3067 111.735 24.2C112.215 24.04 112.668 24.0667 113.095 24.28C113.628 24.44 113.975 24.52 114.135 24.52C114.295 24.4667 114.695 24.5467 115.335 24.76C115.922 24.9733 116.295 25.2133 116.455 25.48C116.615 25.6933 116.642 26.0133 116.535 26.44C116.428 26.6 116.322 26.76 116.215 26.92C116.162 27.0267 116.135 27.1067 116.135 27.16ZM104.535 40.76L104.455 41.24C104.455 41.2933 104.482 41.32 104.535 41.32L104.615 41.4C104.828 41.5067 105.042 41.56 105.255 41.56C105.895 41.2933 106.588 40.8933 107.335 40.36C108.135 39.7733 108.908 39.16 109.655 38.52C110.455 37.88 111.202 37.2667 111.895 36.68C112.588 36.04 113.175 35.48 113.655 35C113.922 34.7333 114.135 34.4667 114.295 34.2C114.455 33.88 114.455 33.5067 114.295 33.08C114.242 33.0267 114.215 32.9733 114.215 32.92C114.162 32.8667 114.135 32.8133 114.135 32.76C114.135 32.7067 114.108 32.6267 114.055 32.52C113.682 32.04 113.095 31.7733 112.295 31.72C112.188 31.6133 112.055 31.5867 111.895 31.64C111.735 31.6933 111.602 31.72 111.495 31.72C111.335 31.8267 111.148 31.96 110.935 32.12C110.722 32.2267 110.562 32.36 110.455 32.52C110.028 33 109.522 33.5867 108.935 34.28C108.402 34.9733 107.842 35.6933 107.255 36.44C106.722 37.1867 106.215 37.9067 105.735 38.6C105.255 39.2933 104.882 39.9067 104.615 40.44L104.535 40.76ZM164.077 26.2C164.184 24.9733 164.37 23.6667 164.637 22.28C164.904 20.84 165.33 19.1867 165.917 17.32C165.224 18.0667 164.504 18.6 163.757 18.92C163.01 19.24 162.237 19.1067 161.437 18.52C159.677 17.24 158.397 15.5333 157.597 13.4C157.33 12.6533 157.437 12.0933 157.917 11.72C158.45 11.3467 158.957 11.16 159.437 11.16C159.704 11.16 159.944 11.1067 160.157 11C160.37 10.8933 160.61 10.84 160.877 10.84C161.037 10.7867 161.224 10.76 161.437 10.76C161.65 10.76 161.81 10.7067 161.917 10.6C163.304 10.12 164.557 9.69333 165.677 9.32C166.797 8.89333 167.917 8.52 169.037 8.2C170.21 7.82666 171.464 7.42666 172.797 7C174.13 6.57333 175.73 6.06667 177.597 5.48L180.237 4.6C180.984 4.44 181.464 4.41333 181.677 4.52C181.89 4.57333 182.05 4.81333 182.157 5.24C182.157 5.29333 182.104 5.58666 181.997 6.12C181.944 6.33333 181.917 6.57333 181.917 6.84C181.224 7.74666 180.424 8.41333 179.517 8.84C178.877 9.10667 178.184 9.45333 177.437 9.88C176.69 10.2533 176.024 10.6533 175.437 11.08C175.01 11.3467 174.61 11.5867 174.237 11.8C173.917 12.0133 173.57 12.2267 173.197 12.44C172.93 12.6 172.637 12.7867 172.317 13C171.997 13.16 171.704 13.32 171.437 13.48C171.65 13.5333 172.024 13.6667 172.557 13.88C172.824 13.9867 173.037 14.1467 173.197 14.36C173.41 14.5733 173.464 14.8933 173.357 15.32C172.984 16.6 172.637 17.72 172.317 18.68C172.05 19.5867 171.784 20.7067 171.517 22.04C171.41 22.4667 171.25 23.0533 171.037 23.8C170.824 24.4933 170.717 25.0533 170.717 25.48C170.984 25.32 171.357 25.1067 171.837 24.84C172.317 24.52 172.797 24.2 173.277 23.88C173.757 23.56 174.21 23.2667 174.637 23C175.064 22.7333 175.384 22.5467 175.597 22.44L177.517 21.32C178.264 20.8933 178.904 20.5467 179.437 20.28C179.97 19.96 180.61 19.5867 181.357 19.16C181.784 18.9467 182.21 18.68 182.637 18.36C183.17 18.04 183.624 17.8533 183.997 17.8C184.37 17.7467 184.584 17.9067 184.637 18.28C184.85 18.6533 184.797 19.1067 184.477 19.64C183.997 20.4933 183.544 21.16 183.117 21.64C182.744 22.0667 182.13 22.7067 181.277 23.56C181.01 23.8267 180.744 24.0667 180.477 24.28C180.21 24.44 179.944 24.6267 179.677 24.84C179.09 25.32 178.424 25.88 177.677 26.52C176.93 27.1067 176.264 27.6133 175.677 28.04C175.09 28.4133 174.61 28.7333 174.237 29C173.917 29.2133 173.464 29.48 172.877 29.8C172.61 29.96 172.317 30.1467 171.997 30.36C171.677 30.52 171.384 30.68 171.117 30.84C170.584 31.1067 169.997 31.4 169.357 31.72C168.717 31.9867 168.05 32.1733 167.357 32.28C166.93 32.3867 166.53 32.3867 166.157 32.28C165.784 32.1733 165.517 31.8533 165.357 31.32C165.25 31.1067 165.17 30.92 165.117 30.76C165.064 30.6 165.01 30.44 164.957 30.28C164.85 30.0667 164.717 29.8 164.557 29.48C164.45 29.1067 164.344 28.84 164.237 28.68C164.13 28.52 164.077 28.3067 164.077 28.04C164.13 27.7733 164.157 27.5067 164.157 27.24C164.157 27.08 164.13 26.92 164.077 26.76C164.077 26.5467 164.077 26.36 164.077 26.2ZM185.357 38.04C185.997 37.8267 186.637 37.64 187.277 37.48C187.864 37.32 188.317 37.2133 188.637 37.16C188.957 37.0533 189.25 36.9733 189.517 36.92C191.117 36.4933 192.824 36.28 194.637 36.28C196.077 36.28 196.797 36.4933 196.797 36.92C196.797 37.1867 196.664 37.4267 196.397 37.64C196.13 37.8533 195.784 38.0133 195.357 38.12C195.09 38.2267 194.824 38.3333 194.557 38.44C194.344 38.5467 194.184 38.6 194.077 38.6C193.49 38.8667 192.85 39.1867 192.157 39.56C191.464 39.88 190.744 40.2533 189.997 40.68C189.357 41 188.584 41.3733 187.677 41.8C186.824 42.2267 186.05 42.6267 185.357 43C185.09 43.16 184.744 43.32 184.317 43.48C183.944 43.64 183.597 43.8267 183.277 44.04L180.157 45.96C179.89 46.1733 179.544 46.28 179.117 46.28C179.01 46.3333 178.877 46.4133 178.717 46.52C178.557 46.5733 178.424 46.6533 178.317 46.76C177.677 47.08 177.144 47.4 176.717 47.72C176.29 47.9867 175.89 48.2533 175.517 48.52C175.25 48.7333 174.93 48.92 174.557 49.08C174.184 49.24 173.784 49.4267 173.357 49.64C173.09 49.7467 172.77 49.9067 172.397 50.12C172.024 50.28 171.65 50.44 171.277 50.6C171.01 50.7067 170.77 50.8667 170.557 51.08C170.45 51.1333 170.237 51.2667 169.917 51.48C169.597 51.64 169.09 51.8533 168.397 52.12C167.704 52.4933 167.064 52.8133 166.477 53.08C165.89 53.3467 165.33 53.6667 164.797 54.04C164.584 54.1467 164.45 54.36 164.397 54.68C164.344 55.2667 164.077 55.72 163.597 56.04C163.117 56.3067 162.584 56.3067 161.997 56.04C161.73 56.04 161.49 55.96 161.277 55.8C160.69 55.5867 160.237 55.32 159.917 55C159.65 54.68 159.33 54.3067 158.957 53.88C158.797 53.6133 158.477 53.3467 157.997 53.08C157.517 52.76 157.224 52.2 157.117 51.4C156.957 50.8667 157.064 50.4133 157.437 50.04C157.81 49.6667 158.157 49.4 158.477 49.24C159.277 48.9733 160.13 48.6 161.037 48.12C161.944 47.64 162.877 47.1067 163.837 46.52C164.37 46.2533 164.797 46.0933 165.117 46.04C165.49 45.9333 165.97 45.8533 166.557 45.8L166.957 45.4C167.117 45.2933 167.304 45.1867 167.517 45.08C167.73 44.9733 167.89 44.8933 167.997 44.84C168.53 44.52 169.117 44.2 169.757 43.88C170.397 43.56 171.037 43.32 171.677 43.16C171.73 43.16 171.784 43.16 171.837 43.16C171.89 43.1067 171.944 43.08 171.997 43.08L172.317 42.04V41.56C172.05 40.6533 171.917 39.8 171.917 39C171.97 38.2 172.024 37.5867 172.077 37.16C172.13 36.2533 172.344 35.2133 172.717 34.04C172.824 33.7733 172.93 33.5067 173.037 33.24C173.144 32.92 173.304 32.52 173.517 32.04C173.624 31.8267 173.704 31.6133 173.757 31.4C173.81 31.1333 173.89 30.8933 173.997 30.68C174.264 30.2 174.557 29.88 174.877 29.72C175.197 29.56 175.704 29.6133 176.397 29.88C176.984 30.0933 177.517 30.36 177.997 30.68C178.477 31 179.01 31.3733 179.597 31.8C180.077 32.2267 180.264 32.7333 180.157 33.32C180.104 33.9067 179.837 34.4133 179.357 34.84C178.93 35.16 178.637 35.56 178.477 36.04C178.37 36.52 178.21 37 177.997 37.48L176.717 40.84V40.92C178.104 40.3867 179.544 39.88 181.037 39.4C182.53 38.92 183.97 38.4667 185.357 38.04ZM184.317 54.12C184.317 54.28 184.45 54.36 184.717 54.36C185.784 55.0533 186.424 55.96 186.637 57.08C186.85 57.6667 186.93 58.2267 186.877 58.76C186.877 59.24 186.77 59.8 186.557 60.44C185.97 61.72 185.357 63.0267 184.717 64.36C184.077 65.6933 183.33 66.9467 182.477 68.12C182.05 68.6 181.57 69.1067 181.037 69.64C180.557 70.2267 180.13 70.76 179.757 71.24C179.17 72.04 178.504 72.6533 177.757 73.08C177.01 73.5067 176.184 73.96 175.277 74.44C175.064 74.5467 174.824 74.6 174.557 74.6C174.344 74.6533 174.104 74.68 173.837 74.68C173.25 74.68 172.797 74.4133 172.477 73.88C172.317 73.6667 172.13 73.4533 171.917 73.24C171.757 73.0267 171.544 72.76 171.277 72.44C171.01 72.1733 170.85 71.9067 170.797 71.64C170.797 71.3733 170.797 71.0267 170.797 70.6C170.797 69.2133 170.984 67.8533 171.357 66.52C171.944 64.9733 172.53 63.5067 173.117 62.12C173.757 60.7333 174.477 59.2933 175.277 57.8C175.757 56.84 176.237 55.96 176.717 55.16C177.197 54.3067 177.73 53.4267 178.317 52.52C178.53 52.04 178.77 51.6667 179.037 51.4C179.304 51.08 179.65 50.7867 180.077 50.52C180.45 49.9867 180.93 49.88 181.517 50.2C181.89 50.4667 182.264 50.7067 182.637 50.92C183.01 51.08 183.41 51.2667 183.837 51.48C184.264 51.7467 184.53 52.0133 184.637 52.28C184.744 52.4933 184.77 52.8667 184.717 53.4C184.45 53.7733 184.317 54.0133 184.317 54.12ZM176.877 68.36C176.877 68.4133 176.904 68.4667 176.957 68.52L177.117 68.6C177.544 68.3333 177.97 67.96 178.397 67.48C178.824 67.0533 179.224 66.5733 179.597 66.04C179.97 65.5067 180.317 64.9733 180.637 64.44C180.957 63.96 181.224 63.5067 181.437 63.08C181.757 62.6 181.864 62.04 181.757 61.4C181.757 61.3467 181.704 61.16 181.597 60.84C181.49 60.6267 181.384 60.4933 181.277 60.44C181.17 60.3867 181.01 60.3067 180.797 60.2H180.397C180.184 60.52 179.997 60.76 179.837 60.92C179.517 61.6133 179.09 62.4933 178.557 63.56C178.077 64.68 177.704 65.5867 177.437 66.28C177.33 66.5467 177.224 66.7867 177.117 67C177.064 67.2667 176.984 67.5333 176.877 67.8V68.36ZM203.197 20.36C203.357 17.5333 204.024 15.0267 205.197 12.84C205.41 12.4133 205.624 11.9867 205.837 11.56C206.05 11.08 206.317 10.5467 206.637 9.96C206.85 9.53333 207.117 9.21333 207.437 9C207.81 8.78666 208.344 8.73333 209.037 8.84C209.677 8.94666 210.184 9.13333 210.557 9.4C210.984 9.66666 211.437 10.0667 211.917 10.6C212.184 10.92 212.37 11.24 212.477 11.56C212.637 11.88 212.61 12.2533 212.397 12.68C212.024 13.2667 211.65 13.88 211.277 14.52C210.957 15.1067 210.584 15.6933 210.157 16.28C210.744 16.0133 211.41 15.72 212.157 15.4C212.957 15.0267 213.704 14.7067 214.397 14.44C215.144 14.12 215.784 13.8533 216.317 13.64C216.85 13.3733 217.197 13.2133 217.357 13.16C218.264 12.7867 218.904 12.2267 219.277 11.48C219.384 11.3733 219.437 11.2667 219.437 11.16C219.49 11 219.57 10.8667 219.677 10.76C219.837 10.4933 219.97 10.3867 220.077 10.44C220.184 10.4933 220.317 10.44 220.477 10.28C220.477 10.2267 220.504 10.1733 220.557 10.12C220.557 10.12 220.61 10.0133 220.717 9.8C220.824 9.58666 220.93 9.37333 221.037 9.16C221.144 8.89333 221.357 8.68 221.677 8.52C221.784 8.30666 221.89 8.09333 221.997 7.88C222.157 7.61333 222.317 7.32 222.477 7C222.904 6.14666 223.464 5.21333 224.157 4.2C224.85 3.13333 225.73 2.06666 226.797 0.999995C227.33 0.466662 227.757 0.199996 228.077 0.199996C228.45 0.199996 228.824 0.279997 229.197 0.439998C229.784 0.706664 230.317 0.999997 230.797 1.32C231.277 1.58666 231.677 2.01333 231.997 2.6C232.21 2.97333 232.397 3.34666 232.557 3.72C232.717 4.09333 232.744 4.52 232.637 5C232.584 5.16 232.557 5.37333 232.557 5.64V6.2C232.557 6.46666 232.424 6.76 232.157 7.08C231.944 7.34666 231.757 7.53333 231.597 7.64C231.01 8.06666 230.504 8.57333 230.077 9.16C229.704 9.69333 229.33 10.2533 228.957 10.84C228.85 10.9467 228.744 11.0533 228.637 11.16C228.584 11.2667 228.504 11.4 228.397 11.56C228.344 11.6667 228.29 11.7733 228.237 11.88C228.184 11.9333 228.13 12.0133 228.077 12.12C227.97 12.3867 227.864 12.6267 227.757 12.84C227.704 13 227.544 13.2133 227.277 13.48C227.17 13.5867 227.064 13.7733 226.957 14.04C226.85 14.2533 226.77 14.4133 226.717 14.52C226.664 14.6267 226.61 14.7067 226.557 14.76C226.504 14.8133 226.477 14.8933 226.477 15L226.237 15.4C226.077 15.7733 225.864 16.1733 225.597 16.6C225.33 16.9733 225.01 17.2667 224.637 17.48C224.637 18.12 224.53 18.6533 224.317 19.08C224.157 19.5067 223.917 19.9333 223.597 20.36C223.544 20.4133 223.464 20.5467 223.357 20.76L222.797 21.48C222.69 21.8533 222.53 22.1467 222.317 22.36C222.104 22.5733 221.944 22.8667 221.837 23.24L221.597 23.8V24.04C221.597 24.3067 221.544 24.52 221.437 24.68C221.384 24.84 221.224 25.1333 220.957 25.56C220.797 25.7733 220.637 25.9867 220.477 26.2C220.37 26.4133 220.237 26.6533 220.077 26.92C219.81 27.4533 219.49 27.8 219.117 27.96C218.744 28.12 218.344 28.2 217.917 28.2C217.65 28.2 217.49 28.2267 217.437 28.28C217.224 28.44 217.01 28.6 216.797 28.76C216.637 28.8667 216.424 28.9733 216.157 29.08C216.05 29.1867 215.944 29.2667 215.837 29.32C215.73 29.32 215.65 29.3467 215.597 29.4C215.33 29.6133 215.037 29.8267 214.717 30.04C214.45 30.2533 214.157 30.4933 213.837 30.76L213.357 31.24L212.157 32.2L211.677 32.44C211.357 32.4933 211.01 32.5467 210.637 32.6C210.264 32.6 209.864 32.6 209.437 32.6C208.69 32.6 207.89 32.4133 207.037 32.04C206.61 31.9333 206.264 31.5867 205.997 31C205.837 30.84 205.757 30.6533 205.757 30.44C205.65 30.2267 205.597 29.72 205.597 28.92C205.757 28.8133 205.97 28.7067 206.237 28.6C206.557 28.44 206.85 28.3067 207.117 28.2C207.277 28.0933 207.464 28.0133 207.677 27.96C207.944 27.9067 208.184 27.8267 208.397 27.72C208.664 27.6133 208.984 27.5067 209.357 27.4C209.73 27.24 210.077 27.0533 210.397 26.84C211.304 26.4667 212.344 26.1733 213.517 25.96C214.744 25.6933 215.784 25.2933 216.637 24.76C216.637 24.6 216.664 24.28 216.717 23.8C216.77 23.32 216.824 22.7867 216.877 22.2C216.984 21.6133 217.064 21.0267 217.117 20.44C217.17 19.8 217.197 19.2133 217.197 18.68C217.197 18.36 216.984 18.3333 216.557 18.6L214.397 19.8C213.864 20.0133 213.544 20.1733 213.437 20.28C213.33 20.3333 213.224 20.4133 213.117 20.52C213.01 20.5733 212.904 20.6267 212.797 20.68C212.317 20.8933 211.784 21.2667 211.197 21.8C210.93 22.0667 210.53 22.2267 209.997 22.28C209.464 22.3333 209.064 22.2533 208.797 22.04C208.477 21.88 208.184 21.6667 207.917 21.4C207.81 21.6667 207.73 21.9067 207.677 22.12C207.677 22.3333 207.65 22.5733 207.597 22.84C207.437 23.32 207.277 23.8267 207.117 24.36C207.01 24.8933 206.904 25.4 206.797 25.88V26.2C206.797 26.68 206.637 26.9733 206.317 27.08C205.997 27.1867 205.65 27.1333 205.277 26.92L204.877 26.68C204.29 26.04 203.89 25.4267 203.677 24.84C203.464 24.2533 203.304 23.4267 203.197 22.36V20.36ZM219.037 70.92C219.09 70.1733 219.117 69.4533 219.117 68.76C219.117 68.12 219.144 67.4 219.197 66.6C219.25 65.8 219.33 64.84 219.437 63.72C219.597 62.6533 219.81 61.32 220.077 59.72L219.757 60.04C219.81 60.04 219.65 60.2 219.277 60.52C218.957 60.84 218.744 61.0267 218.637 61.08C217.997 61.4533 217.437 61.88 216.957 62.36C216.69 62.6267 216.424 62.8667 216.157 63.08C215.944 63.2933 215.704 63.5067 215.437 63.72L214.077 65.24C213.81 65.56 213.65 65.8267 213.597 66.04C213.17 67.0533 212.77 67.64 212.397 67.8C212.077 68.0133 211.49 67.9867 210.637 67.72C210.21 67.56 209.784 67.3467 209.357 67.08C208.984 66.8667 208.584 66.6533 208.157 66.44C207.944 66.3333 207.73 66.2 207.517 66.04C207.304 65.9333 207.064 65.8267 206.797 65.72C206.53 65.6133 206.317 65.5067 206.157 65.4C205.997 65.2933 205.864 65.1333 205.757 64.92L205.277 64.36C204.957 63.9867 204.877 63.6133 205.037 63.24C205.197 62.8667 205.49 62.52 205.917 62.2C206.13 61.9867 206.344 61.7733 206.557 61.56C206.77 61.4 206.984 61.2133 207.197 61C207.304 60.8933 207.384 60.8133 207.437 60.76C207.544 60.6533 207.73 60.4933 207.997 60.28C208.104 60.1733 208.237 60.04 208.397 59.88C208.61 59.72 208.797 59.56 208.957 59.4L209.677 58.84L210.557 58.28C210.877 58.2267 211.144 58.04 211.357 57.72C211.464 57.6133 211.597 57.4533 211.757 57.24C211.917 57.0267 212.13 56.8667 212.397 56.76C212.824 56.5467 213.224 56.36 213.597 56.2C214.024 55.9867 214.237 55.8533 214.237 55.8L214.637 55.4C214.904 55.1867 215.17 54.9733 215.437 54.76C215.704 54.5467 215.97 54.3867 216.237 54.28C216.45 54.1733 216.69 54.04 216.957 53.88C217.277 53.6667 217.57 53.4533 217.837 53.24C218.424 52.8667 218.984 52.52 219.517 52.2C220.104 51.88 220.53 51.6133 220.797 51.4L221.757 50.76C221.97 50.7067 222.264 50.5467 222.637 50.28C223.384 49.9067 223.97 49.6933 224.397 49.64C224.824 49.5867 225.41 49.64 226.157 49.8C226.317 49.9067 226.53 50.04 226.797 50.2C227.064 50.3067 227.33 50.4667 227.597 50.68C228.024 51.2667 228.237 51.88 228.237 52.52C228.237 52.84 228.21 53.2133 228.157 53.64C228.104 54.0667 227.997 54.4667 227.837 54.84C227.784 55.0533 227.704 55.2933 227.597 55.56C227.49 55.8267 227.41 56.04 227.357 56.2V56.12C227.304 56.2267 227.197 56.7067 227.037 57.56C226.824 58.3067 226.557 59.3467 226.237 60.68C225.97 62.0133 225.704 63.3467 225.437 64.68C225.277 65.48 225.09 66.2267 224.877 66.92C224.717 67.6667 224.584 68.2533 224.477 68.68C224.21 69.32 224.05 69.8 223.997 70.12C223.944 70.44 223.89 71.0267 223.837 71.88C223.837 71.9867 223.81 72.0933 223.757 72.2C223.757 72.36 223.757 72.4933 223.757 72.6C223.704 72.9733 223.597 73.48 223.437 74.12C223.33 74.76 223.224 75.24 223.117 75.56C222.957 75.9867 222.85 76.44 222.797 76.92C222.797 77.4533 222.77 78.1733 222.717 79.08C222.61 79.1867 222.477 79.32 222.317 79.48C222.21 79.6933 222.077 80.0133 221.917 80.44L220.797 79.8C220.21 78.5733 219.73 77.4267 219.357 76.36C218.984 75.2933 218.904 74.2267 219.117 73.16C219.224 72.7333 219.224 72.3333 219.117 71.96C219.01 71.5867 218.984 71.24 219.037 70.92ZM225.357 37.08C225.997 36.8667 226.637 36.68 227.277 36.52C227.864 36.36 228.317 36.2533 228.637 36.2C228.957 36.0933 229.25 36.0133 229.517 35.96C231.117 35.5333 232.824 35.32 234.637 35.32C236.077 35.32 236.797 35.5333 236.797 35.96C236.797 36.2267 236.664 36.4667 236.397 36.68C236.13 36.8933 235.784 37.0533 235.357 37.16C235.09 37.2667 234.824 37.3733 234.557 37.48C234.344 37.5867 234.184 37.64 234.077 37.64C233.49 37.9067 232.85 38.2267 232.157 38.6C231.464 38.92 230.744 39.2933 229.997 39.72C229.357 40.04 228.584 40.4133 227.677 40.84C226.824 41.2667 226.05 41.6667 225.357 42.04C225.09 42.2 224.744 42.36 224.317 42.52C223.944 42.68 223.597 42.8667 223.277 43.08L220.157 45C219.89 45.2133 219.544 45.32 219.117 45.32C219.01 45.3733 218.877 45.4533 218.717 45.56C218.557 45.6133 218.424 45.6933 218.317 45.8C217.677 46.12 217.144 46.44 216.717 46.76C216.29 47.0267 215.89 47.2933 215.517 47.56C215.25 47.7733 214.93 47.96 214.557 48.12C214.184 48.28 213.784 48.4667 213.357 48.68C213.09 48.7867 212.77 48.9467 212.397 49.16C212.024 49.32 211.65 49.48 211.277 49.64C211.01 49.7467 210.77 49.9067 210.557 50.12C210.45 50.1733 210.237 50.3067 209.917 50.52C209.597 50.68 209.09 50.8933 208.397 51.16C207.704 51.5333 207.064 51.8533 206.477 52.12C205.89 52.3867 205.33 52.7067 204.797 53.08C204.584 53.1867 204.45 53.4 204.397 53.72C204.344 54.3067 204.077 54.76 203.597 55.08C203.117 55.3467 202.584 55.3467 201.997 55.08C201.73 55.08 201.49 55 201.277 54.84C200.69 54.6267 200.237 54.36 199.917 54.04C199.65 53.72 199.33 53.3467 198.957 52.92C198.797 52.6533 198.477 52.3867 197.997 52.12C197.517 51.8 197.224 51.24 197.117 50.44C196.957 49.9067 197.064 49.4533 197.437 49.08C197.81 48.7067 198.157 48.44 198.477 48.28C199.277 48.0133 200.13 47.64 201.037 47.16C201.944 46.68 202.877 46.1467 203.837 45.56C204.37 45.2933 204.797 45.1333 205.117 45.08C205.49 44.9733 205.97 44.8933 206.557 44.84L206.957 44.44C207.117 44.3333 207.304 44.2267 207.517 44.12C207.73 44.0133 207.89 43.9333 207.997 43.88C208.53 43.56 209.117 43.24 209.757 42.92C210.397 42.6 211.037 42.36 211.677 42.2C211.73 42.2 211.864 42.1467 212.077 42.04C211.97 41.3467 211.917 40.7067 211.917 40.12C211.97 39.5333 212.024 39.08 212.077 38.76C212.13 37.8533 212.344 36.8133 212.717 35.64C212.824 35.3733 212.93 35.1067 213.037 34.84C213.144 34.52 213.304 34.12 213.517 33.64C213.624 33.4267 213.704 33.2133 213.757 33C213.81 32.7333 213.89 32.4933 213.997 32.28C214.264 31.8 214.557 31.48 214.877 31.32C215.197 31.16 215.704 31.2133 216.397 31.48C216.984 31.6933 217.517 31.96 217.997 32.28C218.477 32.6 219.01 32.9733 219.597 33.4C220.077 33.8267 220.264 34.3333 220.157 34.92C220.104 35.5067 219.837 36.0133 219.357 36.44C218.93 36.76 218.637 37.16 218.477 37.64C218.37 38.12 218.21 38.6 217.997 39.08L217.837 39.56C219.064 39.1333 220.317 38.7333 221.597 38.36C222.877 37.9333 224.13 37.5067 225.357 37.08ZM250.237 46.2C249.65 47.5867 249.117 49 248.637 50.44C248.21 51.8267 247.864 53.24 247.597 54.68C247.49 55.2667 247.33 55.9067 247.117 56.6C246.904 57.24 246.45 57.6133 245.757 57.72C245.01 56.92 244.477 56.0667 244.157 55.16C243.89 54.2533 243.704 53.4267 243.597 52.68C243.49 51.1333 243.57 49.72 243.837 48.44C244.264 45.9867 244.85 43.5867 245.597 41.24C246.397 38.8933 247.304 36.52 248.317 34.12C249.064 32.7333 249.65 31.32 250.077 29.88C250.557 28.3867 251.01 26.9733 251.437 25.64C250.477 26.3867 249.677 27.0267 249.037 27.56C248.397 28.0933 247.704 28.7333 246.957 29.48L246.397 30.04C246.13 30.3067 245.89 30.5467 245.677 30.76C245.517 30.9733 245.41 31.1867 245.357 31.4C244.984 32.4667 244.29 33.0267 243.277 33.08C243.01 33.1333 242.504 33.16 241.757 33.16C241.437 33.16 241.117 33.1867 240.797 33.24C240.53 33.2933 240.237 33.1867 239.917 32.92C239.81 32.8133 239.624 32.7067 239.357 32.6C239.144 32.4933 239.09 32.4667 239.197 32.52C238.77 32.36 238.37 32.1733 237.997 31.96C237.677 31.6933 237.464 31.2667 237.357 30.68C237.624 30.2 237.864 29.7733 238.077 29.4C238.344 28.9733 238.61 28.5733 238.877 28.2C238.984 28.0933 239.037 27.9867 239.037 27.88C239.09 27.72 239.17 27.5867 239.277 27.48C240.13 26.4667 240.93 25.5867 241.677 24.84C242.424 24.0933 243.357 23.4 244.477 22.76C244.904 22.5467 245.304 22.36 245.677 22.2C246.05 21.9867 246.45 21.7467 246.877 21.48C247.517 21.1067 248.13 20.76 248.717 20.44C249.357 20.0667 250.104 19.7467 250.957 19.48C251.277 19.3733 251.624 19.2933 251.997 19.24C252.424 19.1867 252.797 19.1867 253.117 19.24C253.33 19.2933 253.517 19.3467 253.677 19.4C253.89 19.4 254.13 19.4267 254.397 19.48C254.61 19.48 254.824 19.48 255.037 19.48C255.25 19.48 255.49 19.5067 255.757 19.56C255.917 19.6133 256.157 19.72 256.477 19.88C256.797 19.9867 257.01 20.0667 257.117 20.12C257.544 20.3867 257.81 20.6267 257.917 20.84C258.077 21 258.21 21.3733 258.317 21.96C258.424 22.28 258.477 22.6533 258.477 23.08C258.53 23.5067 258.557 23.9333 258.557 24.36C258.557 25.5867 258.317 26.76 257.837 27.88C257.677 28.2 257.544 28.52 257.437 28.84C257.33 29.1067 257.25 29.2933 257.197 29.4C256.77 30.8933 256.29 32.3067 255.757 33.64C255.33 34.8667 254.824 36.0133 254.237 37.08C253.704 38.1467 253.197 39.16 252.717 40.12C253.144 40.3333 253.544 40.5467 253.917 40.76C254.29 40.9733 254.69 41.2133 255.117 41.48C256.13 42.12 257.144 42.68 258.157 43.16C259.224 43.64 260.344 44.2267 261.517 44.92C261.784 45.1333 262.104 45.4 262.477 45.72C262.904 45.9867 263.33 46.3067 263.757 46.68C264.13 46.9467 264.45 47.2133 264.717 47.48C264.984 47.6933 265.25 47.8533 265.517 47.96C265.73 48.12 266.104 48.4667 266.637 49C267.17 49.5333 267.41 50.0133 267.357 50.44C267.25 50.92 266.984 51.1867 266.557 51.24C266.13 51.2933 265.784 51.2667 265.517 51.16C265.41 51.16 265.277 51.16 265.117 51.16C264.957 51.1067 264.824 51.08 264.717 51.08C264.344 51.0267 263.864 50.9467 263.277 50.84C262.744 50.7333 262.344 50.6267 262.077 50.52C261.064 50.1467 260.184 49.8533 259.437 49.64C258.69 49.4267 257.944 49.1333 257.197 48.76C256.504 48.4933 255.944 48.28 255.517 48.12C255.144 47.9067 254.53 47.56 253.677 47.08C253.464 46.9733 253.224 46.8667 252.957 46.76C252.744 46.6533 252.477 46.52 252.157 46.36C251.677 46.1467 251.117 45.8267 250.477 45.4L250.237 46.12V46.2ZM276.237 28.6C276.237 28.3333 276.264 28.12 276.317 27.96C276.37 27.8 276.45 27.6133 276.557 27.4C276.824 26.6533 277.064 25.8267 277.277 24.92C277.544 24.0133 277.81 23.1867 278.077 22.44L280.157 17.8C280.264 17.3733 280.397 16.8933 280.557 16.36C280.77 15.7733 281.01 15.1867 281.277 14.6C281.704 13.5867 282.397 13.08 283.357 13.08C283.464 13.08 283.544 13.08 283.597 13.08C283.704 13.0267 283.81 13 283.917 13C284.397 12.84 284.744 12.8133 284.957 12.92C285.17 12.9733 285.464 13.16 285.837 13.48C286.05 13.5867 286.264 13.7733 286.477 14.04C286.744 14.2533 286.984 14.44 287.197 14.6C287.517 14.92 287.73 15.3467 287.837 15.88C287.997 16.4133 288.024 16.9733 287.917 17.56C287.81 17.9867 287.677 18.4133 287.517 18.84C287.357 19.2667 287.197 19.6933 287.037 20.12C286.984 20.2267 286.877 20.52 286.717 21C286.61 21.4267 286.504 21.88 286.397 22.36L284.797 27.48L284.477 28.36C284.37 28.6267 284.29 28.8933 284.237 29.16C284.184 29.4267 284.13 29.6933 284.077 29.96C283.97 30.7067 283.81 31.4 283.597 32.04C283.384 32.68 283.144 33.2933 282.877 33.88C282.77 34.04 282.664 34.2267 282.557 34.44C282.504 34.6 282.424 34.8133 282.317 35.08C282.264 35.6667 282.077 36.1733 281.757 36.6C281.437 37.0267 281.197 37.5067 281.037 38.04C281.037 38.04 280.984 38.3867 280.877 39.08C280.824 39.3467 280.744 39.56 280.637 39.72C280.584 39.8267 280.504 39.9867 280.397 40.2C280.504 40.7867 280.397 41.4 280.077 42.04C279.81 42.68 279.544 43.16 279.277 43.48C279.17 43.5867 279.117 43.6667 279.117 43.72C279.117 43.7733 279.064 43.8533 278.957 43.96C279.01 44.0667 279.064 44.1733 279.117 44.28C279.17 44.3867 279.197 44.4933 279.197 44.6C279.197 44.6533 279.197 44.7867 279.197 45C279.25 45.16 279.277 45.2667 279.277 45.32C279.064 45.6933 278.93 46.0667 278.877 46.44C278.824 46.6533 278.744 46.9467 278.637 47.32C278.53 47.64 278.424 47.9333 278.317 48.2C278.05 48.6267 277.864 49.0267 277.757 49.4C277.65 49.72 277.544 50.1733 277.437 50.76L277.117 51.32L276.397 53L276.077 53.08C276.024 53.1867 275.997 53.2933 275.997 53.4C275.997 53.5067 275.97 53.6133 275.917 53.72C275.917 53.88 275.89 54.0133 275.837 54.12C275.837 54.2267 275.837 54.3333 275.837 54.44V55.16C275.73 55.8 275.597 56.3333 275.437 56.76C275.33 57.1867 275.224 57.7467 275.117 58.44L274.397 61.48C274.29 61.6933 274.21 61.9067 274.157 62.12C274.157 62.3333 274.13 62.52 274.077 62.68C274.024 62.8933 273.997 63.08 273.997 63.24C273.304 62.7067 272.797 62.1467 272.477 61.56C272.157 60.9733 271.997 60.4933 271.997 60.12L271.597 58.6L271.677 56.6C271.677 56.44 271.677 56.28 271.677 56.12C271.677 55.9067 271.704 55.72 271.757 55.56C271.81 55.3467 271.837 55.1333 271.837 54.92C271.89 54.7067 271.837 54.4133 271.677 54.04C271.624 53.9333 271.597 53.5333 271.597 52.84C271.65 52.7333 271.65 52.6267 271.597 52.52C271.597 52.4133 271.597 52.3067 271.597 52.2C271.597 51.8267 271.597 51.4267 271.597 51C271.597 50.5733 271.624 50.2 271.677 49.88C271.677 49.4533 271.704 49.08 271.757 48.76C271.81 48.3867 271.864 48.0133 271.917 47.64L272.157 44.76C272.264 44.1733 272.37 43.64 272.477 43.16C272.637 42.68 272.85 42.2533 273.117 41.88V41.72C273.064 41.0267 273.17 40.3067 273.437 39.56C273.437 39.2933 273.49 38.8933 273.597 38.36C273.704 38.1467 273.837 37.9333 273.997 37.72C274.21 37.4533 274.45 37.2667 274.717 37.16C274.45 37.16 274.317 36.92 274.317 36.44C274.317 35.9067 274.317 35.5867 274.317 35.48C274.424 34.6267 274.69 33.9867 275.117 33.56C275.01 32.9733 275.01 32.5467 275.117 32.28C275.224 32.0133 275.33 31.72 275.437 31.4C275.704 31.6133 275.997 31.7467 276.317 31.8C276.637 31.8 276.797 31.64 276.797 31.32C276.797 31.2133 276.664 31.1067 276.397 31C276.184 30.84 275.864 30.9733 275.437 31.4C275.437 31.3467 275.437 31.24 275.437 31.08C275.49 30.8667 275.544 30.6533 275.597 30.44C275.704 30.2267 275.784 30.04 275.837 29.88C275.944 29.72 275.997 29.6133 275.997 29.56C276.05 29.4533 276.077 29.3467 276.077 29.24C276.13 29.1333 276.184 29 276.237 28.84V28.6ZM330.428 25.8C330.535 25.48 330.641 25.16 330.748 24.84C330.855 24.52 330.961 24.2267 331.068 23.96C331.281 23.3733 331.441 22.8667 331.548 22.44C331.708 22.0133 331.895 21.6133 332.108 21.24C332.375 20.6533 332.615 20.0933 332.828 19.56C333.095 19.0267 333.361 18.4667 333.628 17.88C333.788 17.56 333.921 17.3467 334.028 17.24C334.135 17.08 334.268 16.8667 334.428 16.6C334.801 15.96 335.148 15.3467 335.468 14.76C335.681 14.3867 335.975 14.0133 336.348 13.64C336.775 13.16 337.175 12.92 337.548 12.92C337.975 12.92 338.401 13.0533 338.828 13.32L339.788 13.72C340.641 14.2 341.415 14.7333 342.108 15.32C342.535 15.64 342.668 16.0667 342.508 16.6C342.401 17.1333 342.241 17.5333 342.028 17.8C341.708 18.28 341.468 18.68 341.308 19C341.041 19.5333 340.801 20.04 340.588 20.52C340.428 20.9467 340.215 21.4 339.948 21.88C339.788 22.3067 339.628 22.7333 339.468 23.16C339.308 23.5333 339.148 23.9067 338.988 24.28C338.561 25.1867 338.241 25.9867 338.028 26.68C337.815 27.1067 337.601 27.64 337.388 28.28C337.228 28.8667 337.068 29.48 336.908 30.12C336.588 31.72 336.135 33.1867 335.548 34.52C335.441 34.7333 335.308 35 335.148 35.32C335.041 35.5867 334.961 35.8 334.908 35.96C334.855 36.3867 334.775 36.8667 334.668 37.4C334.561 37.88 334.401 38.3333 334.188 38.76C333.601 39.8267 333.308 40.9733 333.308 42.2C333.308 42.9467 332.908 43.6133 332.108 44.2C332.001 44.3067 332.001 44.4667 332.108 44.68C332.215 44.7867 332.268 44.9733 332.268 45.24C332.268 45.4533 332.268 45.6933 332.268 45.96C332.161 46.4933 332.001 47.0267 331.788 47.56C331.575 48.0933 331.255 48.6267 330.828 49.16C330.668 49.2667 330.455 49.4 330.188 49.56C329.975 49.72 329.761 49.8 329.548 49.8C329.441 49.8 329.228 49.6933 328.908 49.48C328.588 49.2667 328.375 49.1067 328.268 49C327.841 47.7733 327.521 46.76 327.308 45.96C327.148 45.1067 327.015 44.1467 326.908 43.08C326.908 42.6533 326.935 42.3067 326.988 42.04C327.148 41.2933 327.255 40.5733 327.308 39.88C327.415 39.1333 327.521 38.3867 327.628 37.64C327.735 37.1067 327.815 36.6 327.868 36.12C327.975 35.64 328.081 35.1333 328.188 34.6C328.295 33.8 328.561 32.8933 328.988 31.88L330.428 25.8ZM327.628 29.16C327.628 29.3733 327.495 29.6133 327.228 29.88C327.015 30.1467 326.775 30.36 326.508 30.52L326.028 30.76C325.921 30.8667 325.841 30.92 325.788 30.92C325.575 31.5067 325.361 32.12 325.148 32.76C324.988 33.3467 324.801 33.96 324.588 34.6C324.161 35.8267 323.815 36.9467 323.548 37.96C323.281 38.9733 323.015 40.1467 322.748 41.48C322.695 41.9067 322.535 42.5467 322.268 43.4C322.055 44.2 321.868 44.8133 321.708 45.24C321.441 45.8267 321.175 46.36 320.908 46.84C320.695 47.32 320.321 47.56 319.788 47.56C319.255 47.56 318.855 47.32 318.588 46.84C318.321 46.3067 318.135 45.7733 318.028 45.24C318.028 45.1867 318.001 45.1067 317.948 45C317.948 44.8933 317.948 44.7867 317.948 44.68C317.841 43.4533 317.815 42.1467 317.868 40.76C317.921 39.32 318.081 37.8267 318.348 36.28C318.348 36.12 318.375 35.9867 318.428 35.88C318.161 36.1467 317.948 36.3333 317.788 36.44L315.868 37.24L313.708 38.68C313.495 38.8933 313.255 39.0533 312.988 39.16C312.188 39.5867 311.575 39.72 311.148 39.56C310.721 39.3467 310.215 38.9733 309.628 38.44C309.308 38.1733 309.095 37.88 308.988 37.56C308.881 37.24 308.801 36.8933 308.748 36.52L309.228 35.64C310.081 34.9467 310.881 34.3333 311.628 33.8C312.428 33.2133 313.228 32.7067 314.028 32.28C314.828 31.8 315.655 31.3733 316.508 31C317.361 30.6267 318.321 30.28 319.388 29.96C319.441 29.6933 319.495 29.4267 319.548 29.16C319.601 28.84 319.681 28.52 319.788 28.2C320.108 27.1867 320.348 26.3067 320.508 25.56C320.721 24.76 321.121 23.7467 321.708 22.52C321.921 21.9333 322.241 21.4 322.668 20.92C323.148 20.44 323.841 20.3333 324.748 20.6C325.175 20.7067 325.681 20.9733 326.268 21.4C326.908 21.8267 327.361 22.2 327.628 22.52C328.001 22.8933 328.241 23.32 328.348 23.8C328.508 24.28 328.375 25 327.948 25.96C327.681 26.2267 327.495 26.5733 327.388 27C327.281 27.2667 327.148 27.56 326.988 27.88C326.828 28.2 326.695 28.4933 326.588 28.76C327.281 28.76 327.628 28.8933 327.628 29.16ZM320.028 71.24C319.495 70.9733 318.961 70.6267 318.428 70.2C317.895 69.7733 317.495 69.3467 317.228 68.92C316.961 68.6533 316.641 68.2 316.268 67.56C316.161 67.4 316.028 67.1867 315.868 66.92C315.708 66.7067 315.548 66.4667 315.388 66.2V65.56C315.388 65.24 315.388 64.8933 315.388 64.52C315.441 64.1467 315.495 63.7467 315.548 63.32C315.601 63.2133 315.628 63.1067 315.628 63C315.681 62.8933 315.735 62.8133 315.788 62.76C315.895 62.3333 315.975 61.9067 316.028 61.48C316.135 61.1067 316.241 60.7067 316.348 60.28C316.561 59.32 316.801 58.4133 317.068 57.56C317.335 56.6533 317.735 55.8267 318.268 55.08C318.375 54.92 318.428 54.8133 318.428 54.76C318.428 54.7067 318.455 54.5733 318.508 54.36C318.508 54.0933 318.561 53.9067 318.668 53.8C318.935 53.1067 319.201 52.4667 319.468 51.88C319.788 51.2933 320.108 50.7333 320.428 50.2C321.015 49.56 321.521 49.2667 321.948 49.32C322.375 49.32 322.801 49.4 323.228 49.56C323.601 49.7733 323.948 49.9867 324.268 50.2C324.641 50.36 324.961 50.5733 325.228 50.84C325.441 50.9467 325.628 51.08 325.788 51.24C326.001 51.4 326.161 51.5333 326.268 51.64C326.535 51.9067 326.748 52.2533 326.908 52.68C327.068 53.1067 326.961 53.56 326.588 54.04C326.481 54.4667 326.268 54.7333 325.948 54.84C325.415 55.5867 324.988 56.44 324.668 57.4C324.348 58.3067 324.081 59.2133 323.868 60.12L323.708 60.76C323.388 61.56 323.228 62.36 323.228 63.16C323.335 63.0533 323.468 62.9733 323.628 62.92C323.788 62.92 323.921 62.8933 324.028 62.84C324.295 62.6267 324.828 62.3867 325.628 62.12C326.481 61.8533 327.415 61.5867 328.428 61.32C329.441 61.0533 330.428 60.84 331.388 60.68C332.401 60.4667 333.201 60.3067 333.788 60.2H335.948C336.055 60.2 336.188 60.2267 336.348 60.28C336.561 60.28 336.721 60.28 336.828 60.28H337.308L337.148 61.32C336.775 61.7467 336.401 62.0667 336.028 62.28C335.921 62.44 335.735 62.6 335.468 62.76C335.201 62.92 334.908 63.08 334.588 63.24C334.321 63.4 334.055 63.5333 333.788 63.64C333.308 63.8 332.588 64.0667 331.628 64.44C330.721 64.8667 329.761 65.32 328.748 65.8C327.788 66.3333 326.881 66.8133 326.028 67.24C325.175 67.72 324.561 68.0667 324.188 68.28C323.921 68.4933 323.601 68.68 323.228 68.84C322.908 69.0533 322.615 69.2933 322.348 69.56C322.081 69.8267 321.735 70.0933 321.308 70.36C320.881 70.6267 320.455 70.92 320.028 71.24ZM289.548 55.4C289.601 54.8133 289.655 54.12 289.708 53.32C289.815 52.52 290.001 51.7467 290.268 51C290.535 50.5733 290.615 50.12 290.508 49.64C290.615 49.0533 290.695 48.4667 290.748 47.88C290.855 47.24 291.041 46.6 291.308 45.96C291.148 45.5867 291.335 45.1333 291.868 44.6V44.52C291.868 44.4667 291.841 44.44 291.788 44.44C291.735 44.3867 291.708 44.3333 291.708 44.28C291.708 44.2267 291.735 44.12 291.788 43.96C291.841 43.8 292.001 43.56 292.268 43.24C292.161 42.76 292.161 42.4933 292.268 42.44C292.375 42.3867 292.455 42.2533 292.508 42.04L292.668 41.64L292.908 40.76L293.308 39.8C293.308 39.48 293.335 39.16 293.388 38.84C293.495 38.52 293.708 38.2267 294.028 37.96C294.081 37.9067 294.135 37.88 294.188 37.88C294.241 37.8267 294.295 37.7467 294.348 37.64C294.348 37.3733 294.348 37.1333 294.348 36.92C294.401 36.7067 294.535 36.4667 294.748 36.2L295.228 34.84C295.228 34.5733 295.281 34.36 295.388 34.2C295.548 33.9867 295.735 33.7733 295.948 33.56C296.108 33.1333 296.241 32.8667 296.348 32.76C296.455 32.4933 296.561 32.28 296.668 32.12C296.828 31.9067 296.961 31.6667 297.068 31.4C297.281 31.08 297.441 30.7867 297.548 30.52C297.708 30.2 297.841 29.88 297.948 29.56C298.161 28.8667 298.455 28.3333 298.828 27.96C299.148 27.48 299.388 27.1333 299.548 26.92C299.761 26.7067 299.921 26.5467 300.028 26.44C300.135 26.3333 300.215 26.2267 300.268 26.12C300.321 26.0133 300.401 25.9067 300.508 25.8C300.561 25.8 300.641 25.7467 300.748 25.64C300.855 25.5867 301.015 25.4 301.228 25.08C301.335 25.0267 301.495 24.9467 301.708 24.84C301.921 24.7333 302.215 24.7333 302.588 24.84C302.801 24.7333 303.015 24.6267 303.228 24.52C303.495 24.4133 303.815 24.4133 304.188 24.52C304.455 24.6267 304.695 24.76 304.908 24.92C305.121 25.0267 305.308 25.1333 305.468 25.24C305.468 25.1867 305.548 25.24 305.708 25.4C305.761 25.4533 305.815 25.48 305.868 25.48C306.295 25.9067 306.455 26.4667 306.348 27.16C306.295 27.8533 306.161 28.3867 305.948 28.76L305.468 29.4C305.361 29.5067 305.201 29.6933 304.988 29.96C304.828 30.2267 304.668 30.5467 304.508 30.92C304.401 31.1867 304.295 31.4267 304.188 31.64C304.135 31.8 304.028 31.96 303.868 32.12C303.815 32.2267 303.761 32.3333 303.708 32.44C303.708 32.5467 303.655 32.6533 303.548 32.76C303.228 33.2933 302.855 33.88 302.428 34.52C302.001 35.16 301.655 35.7733 301.388 36.36L301.148 36.84C301.095 36.8933 301.068 36.9467 301.068 37C301.068 37 301.041 37.0267 300.988 37.08C300.935 37.1333 300.908 37.1867 300.908 37.24C300.535 38.3067 300.215 39.0533 299.948 39.48C299.841 39.7467 299.681 40.04 299.468 40.36C299.308 40.6267 299.201 40.84 299.148 41C299.095 41.1067 299.041 41.2133 298.988 41.32C298.988 41.4267 298.961 41.5067 298.908 41.56C298.855 41.6667 298.801 41.8533 298.748 42.12C298.695 42.3333 298.641 42.4667 298.588 42.52C298.481 42.6267 298.348 42.7867 298.188 43C298.081 43.16 297.975 43.32 297.868 43.48C297.708 43.6933 297.548 43.88 297.388 44.04C297.335 44.1467 297.308 44.2267 297.308 44.28C297.308 44.3333 297.281 44.3867 297.228 44.44C297.228 44.5467 297.228 44.68 297.228 44.84C297.228 44.9467 297.175 45.1333 297.068 45.4C297.015 45.72 296.908 46.0133 296.748 46.28C296.641 46.5467 296.535 46.8133 296.428 47.08C296.268 47.24 296.161 47.4533 296.108 47.72C296.108 48.1467 296.028 48.52 295.868 48.84C295.761 49.1067 295.655 49.3733 295.548 49.64C295.495 49.8 295.441 49.9867 295.388 50.2C295.335 50.36 295.281 50.5733 295.228 50.84C295.121 51.16 294.988 51.48 294.828 51.8C294.828 52.12 294.748 52.4133 294.588 52.68C294.481 52.9467 294.375 53.2133 294.268 53.48V53.96C294.108 54.1733 293.975 54.3867 293.868 54.6C293.761 54.76 293.628 54.92 293.468 55.08C293.415 55.1867 293.335 55.3733 293.228 55.64C293.121 55.8533 293.041 56.04 292.988 56.2C292.881 56.3067 292.775 56.4933 292.668 56.76C292.615 56.9733 292.455 57.1067 292.188 57.16C292.028 57.4267 291.788 57.6133 291.468 57.72C291.201 57.7733 290.988 57.7733 290.828 57.72C290.508 57.6133 290.215 57.4533 289.948 57.24C289.735 56.9733 289.628 56.7067 289.628 56.44L289.548 55.4ZM304.588 45.4C304.161 44.9733 303.655 44.6533 303.068 44.44C302.535 44.1733 301.975 43.8267 301.388 43.4C300.801 43.0267 300.508 42.6533 300.508 42.28C300.508 41.8533 300.641 41.4533 300.908 41.08C301.228 40.3333 301.601 39.7733 302.028 39.4C302.508 39.0267 303.068 38.68 303.708 38.36C304.295 38.0933 304.748 38.0667 305.068 38.28C305.388 38.44 305.681 38.6533 305.948 38.92C306.108 39.08 306.241 39.16 306.348 39.16C306.508 39.3733 306.668 39.56 306.828 39.72C306.988 39.88 307.148 40.0133 307.308 40.12C308.375 41.3467 309.361 42.6 310.268 43.88C311.228 45.1067 312.108 46.3867 312.908 47.72C313.335 48.1467 313.735 48.68 314.108 49.32C314.535 49.7467 314.748 50.2533 314.748 50.84C314.748 51.4267 314.455 51.6667 313.868 51.56C313.815 51.56 313.761 51.5867 313.708 51.64C313.655 51.64 313.575 51.64 313.468 51.64H313.228C313.121 51.5867 313.015 51.56 312.908 51.56C312.855 51.5067 312.775 51.4533 312.668 51.4C312.401 51.2933 312.161 51.1867 311.948 51.08C311.735 50.9733 311.495 50.7867 311.228 50.52C310.961 50.2533 310.561 49.9333 310.028 49.56C309.548 49.1867 309.095 48.8667 308.668 48.6L305.948 46.52C305.681 46.4133 305.495 46.3067 305.388 46.2C305.281 46.0933 305.201 46.0133 305.148 45.96L304.588 45.4ZM369.283 20.68C369.23 21.2133 369.07 21.56 368.803 21.72C368.536 21.88 368.243 22.0133 367.923 22.12C367.176 22.3333 366.403 22.68 365.603 23.16C364.803 23.64 364.003 24.12 363.203 24.6C362.19 25.1867 361.15 25.7733 360.083 26.36C359.016 26.8933 357.95 27.4533 356.883 28.04C357.15 28.1467 357.39 28.28 357.603 28.44C357.816 28.6 358.056 28.76 358.323 28.92C358.75 29.24 359.016 29.56 359.123 29.88C359.283 30.2 359.256 30.6533 359.043 31.24C358.776 31.8267 358.483 33 358.163 34.76C358.43 34.6533 358.643 34.5467 358.803 34.44C359.016 34.3333 359.23 34.2267 359.443 34.12C359.39 34.12 359.416 34.0933 359.523 34.04C359.63 33.9867 359.736 33.9333 359.843 33.88C360.003 33.7733 360.163 33.6933 360.323 33.64C360.536 33.5333 360.696 33.4533 360.803 33.4C361.283 33.24 361.736 33.0533 362.163 32.84C362.643 32.6267 363.096 32.44 363.523 32.28C364.056 32.0133 364.75 31.72 365.603 31.4C366.51 31.0267 367.336 30.7067 368.083 30.44C368.456 30.28 368.83 30.1467 369.203 30.04C369.63 29.9333 369.976 29.8533 370.243 29.8C370.563 29.6933 370.91 29.6133 371.283 29.56C371.656 29.5067 371.976 29.4267 372.243 29.32C372.776 29.1067 373.283 29 373.763 29C374.243 29 374.563 29.2133 374.723 29.64C374.83 30.0667 374.723 30.44 374.403 30.76C374.083 31.0267 373.816 31.2667 373.603 31.48L372.883 32.12C372.67 32.28 372.456 32.4667 372.243 32.68C372.03 32.84 371.843 32.9733 371.683 33.08C371.043 33.56 370.403 34.0933 369.763 34.68C369.123 35.2133 368.483 35.72 367.843 36.2C367.15 36.6267 366.643 36.9467 366.323 37.16C366.003 37.32 365.496 37.5867 364.803 37.96L363.123 39.08C362.696 39.2933 362.296 39.5067 361.923 39.72C361.603 39.88 361.31 40.04 361.043 40.2C360.51 40.4667 359.843 40.52 359.043 40.36L358.403 40.04C358.136 39.9333 357.923 39.8533 357.763 39.8C357.603 39.6933 357.443 39.5867 357.283 39.48C357.07 40.3867 356.91 41.24 356.803 42.04C356.696 42.7867 356.616 43.3467 356.563 43.72C356.35 44.84 356.163 45.9867 356.003 47.16C355.843 48.3333 355.763 49.5333 355.763 50.76C357.363 49.6933 358.803 48.6533 360.083 47.64C361.363 46.5733 362.75 45.5333 364.243 44.52C365.363 43.7733 366.456 43.2133 367.523 42.84C368.643 42.4133 369.656 42.0133 370.563 41.64C371.256 41.3733 371.736 41.32 372.003 41.48C372.323 41.64 372.563 41.9333 372.723 42.36C372.99 42.9467 372.856 43.5067 372.323 44.04C371.843 44.52 371.336 45 370.803 45.48C370.323 45.96 369.923 46.3333 369.603 46.6C368.75 47.3467 367.95 48.0133 367.203 48.6C366.51 49.1333 365.71 49.7467 364.803 50.44C364.11 50.9733 363.496 51.4267 362.963 51.8C362.43 52.1733 361.816 52.6533 361.123 53.24C360.963 53.3467 360.75 53.5067 360.483 53.72C360.27 53.9333 360.03 54.0933 359.763 54.2C359.496 54.4133 359.23 54.6267 358.963 54.84C358.696 55 358.456 55.16 358.243 55.32C357.816 55.5867 357.443 55.8533 357.123 56.12C356.856 56.3333 356.59 56.4933 356.323 56.6C353.976 57.56 352.163 57.2133 350.883 55.56C350.616 55.24 350.296 54.8667 349.923 54.44C349.603 53.96 349.31 53.5067 349.043 53.08C348.776 52.6533 348.616 52.2267 348.563 51.8C348.51 51.3733 348.483 50.7067 348.483 49.8C348.483 48.4667 348.536 47 348.643 45.4C348.75 43.7467 348.91 42.0933 349.123 40.44C349.336 38.7333 349.576 37.08 349.843 35.48C350.11 33.8267 350.403 32.36 350.723 31.08C350.19 31.3467 349.656 31.6133 349.123 31.88C348.643 32.0933 348.136 32.3333 347.603 32.6C346.91 32.92 346.27 33.1067 345.683 33.16C345.096 33.16 344.59 32.8667 344.163 32.28C343.896 31.96 343.683 31.6933 343.523 31.48C343.416 31.2133 343.31 30.9467 343.203 30.68C343.096 30.52 343.016 30.36 342.963 30.2C342.91 30.04 342.83 29.8533 342.723 29.64C342.296 29.0533 342.19 28.52 342.403 28.04C342.563 27.5067 343.016 27.2133 343.763 27.16C345.043 26.68 346.163 26.2 347.123 25.72C348.136 25.24 349.23 24.7067 350.403 24.12C350.723 23.96 351.043 23.8267 351.363 23.72C351.683 23.56 352.03 23.3733 352.403 23.16C354.75 22.04 357.016 21.2133 359.203 20.68C361.443 20.1467 363.843 19.6667 366.403 19.24C366.83 19.1867 367.23 19.16 367.603 19.16C367.976 19.16 368.376 19.2933 368.803 19.56C368.856 19.56 368.963 19.6667 369.123 19.88C369.283 20.04 369.336 20.3067 369.283 20.68ZM394.803 26.28C394.803 26.9733 394.59 27.48 394.163 27.8C394.056 27.9067 393.923 28.04 393.763 28.2C393.656 28.3067 393.55 28.3867 393.443 28.44C393.336 28.4933 393.23 28.5467 393.123 28.6C393.07 28.6 392.99 28.6267 392.883 28.68C392.67 29.3733 392.483 30.0667 392.323 30.76C392.163 31.4 392.003 32.0667 391.843 32.76C391.736 33.0267 391.656 33.2933 391.603 33.56C391.603 33.7733 391.576 33.9867 391.523 34.2L390.723 37.16C390.67 37.4267 390.643 37.6667 390.643 37.88C390.643 38.0933 390.616 38.3333 390.563 38.6C390.51 39.0267 390.43 39.48 390.323 39.96C390.27 40.44 390.11 40.92 389.843 41.4C389.843 42.1467 389.763 42.7867 389.603 43.32C389.496 43.8533 389.39 44.4133 389.283 45C389.123 45.7467 388.963 46.4667 388.803 47.16C388.696 47.8 388.696 48.4133 388.803 49C388.803 49.4267 388.803 49.8 388.803 50.12C388.803 50.3867 388.776 50.6267 388.723 50.84C388.296 52.0133 387.976 53.08 387.763 54.04C387.603 54.9467 387.47 56.0133 387.363 57.24C387.363 57.4 387.336 57.5333 387.283 57.64C387.283 57.7467 387.256 57.8533 387.203 57.96C387.203 58.0667 387.176 58.2 387.123 58.36C387.123 58.4667 387.123 58.5467 387.123 58.6L385.923 59.16C385.816 59.16 385.63 59.1333 385.363 59.08C385.15 59.0267 384.91 58.8667 384.643 58.6C384.59 58.4933 384.51 58.3867 384.403 58.28C384.35 58.1733 384.296 58.0667 384.243 57.96C384.03 57.64 383.843 57.24 383.683 56.76C383.47 56.28 383.283 55.9067 383.123 55.64C383.016 55.3733 382.936 54.9467 382.883 54.36C382.776 53.7733 382.643 53.1867 382.483 52.6C382.323 52.0133 382.19 51.32 382.083 50.52C382.03 50.0933 382.003 49.7467 382.003 49.48C382.056 49.16 382.083 48.8133 382.083 48.44C382.136 47.4267 382.19 46.4133 382.243 45.4C382.296 44.3867 382.403 43.4267 382.563 42.52C382.67 41.9867 382.75 41.4533 382.803 40.92C382.91 40.3333 383.016 39.7467 383.123 39.16C383.176 38.5733 383.23 38.04 383.283 37.56C383.336 37.08 383.416 36.6267 383.523 36.2C383.576 35.88 383.603 35.5867 383.603 35.32C383.603 35.0533 383.63 34.7867 383.683 34.52C383.416 34.68 383.176 34.8667 382.963 35.08C382.75 35.24 382.536 35.3733 382.323 35.48C382.003 35.6933 381.603 35.9333 381.123 36.2C380.696 36.4667 380.35 36.68 380.083 36.84L379.363 37.24C377.71 37.9333 376.323 37.5867 375.203 36.2C374.99 35.9867 374.883 35.8533 374.883 35.8C374.883 35.6933 374.856 35.5067 374.803 35.24C374.75 34.8667 374.803 34.4667 374.963 34.04C374.963 33.8267 374.963 33.6667 374.963 33.56C375.016 33.4 375.23 33.2667 375.603 33.16C377.15 31.9333 378.723 30.8667 380.323 29.96C381.976 29.0533 383.63 28.2267 385.283 27.48L385.843 25.48C385.95 25.3733 386.056 25.08 386.163 24.6C386.27 24.0667 386.376 23.6933 386.483 23.48C386.59 23.32 386.67 23.1333 386.723 22.92C386.776 22.7067 386.856 22.52 386.963 22.36C387.176 22.0933 387.283 21.9067 387.283 21.8C387.336 21.64 387.39 21.5067 387.443 21.4C387.55 21.08 387.656 20.8133 387.763 20.6C388.35 19.0533 389.123 17.6933 390.083 16.52C391.043 15.3467 392.19 14.1467 393.523 12.92C394.59 13.56 395.39 14.1733 395.923 14.76C396.51 15.3467 396.91 16.04 397.123 16.84C397.176 17 397.203 17.2133 397.203 17.48C397.203 17.7467 397.203 17.9867 397.203 18.2C397.203 18.4667 397.15 18.7067 397.043 18.92C396.936 19.08 396.83 19.2133 396.723 19.32C396.136 20.3333 395.603 21.3733 395.123 22.44C394.696 23.4533 394.296 24.4933 393.923 25.56C394.35 25.6133 394.643 25.8533 394.803 26.28Z" fill="#807863"/>
</svg>
